<?xml version="1.0" encoding="utf-8"?>
<!-- Generator: Moho 12.5 build 22438 -->
<!DOCTYPE svg PUBLIC "-//W3C//DTD SVG 1.1//EN" "http://www.w3.org/Graphics/SVG/1.1/DTD/svg11.dtd">
<svg version="1.1" id="Frame_0" xmlns="http://www.w3.org/2000/svg" xmlns:xlink="http://www.w3.org/1999/xlink" width="1920px" height="1080px">
<g id="Layer_3">
<g id="Layer_4">
<clipPath id="81dc4626-5db9-4460-8ebd-9be618b3e150">
<path fill="#ffffff" fill-rule="evenodd" fill-opacity="0.000000" stroke="none" d="M 501.305 464.580 C 512.218 464.288 526.745 465.852 537.648 466.397 C 537.650 466.391 547.804 425.325 555.455 409.001 C 565.128 388.362 581.575 362.104 597.241 345.548 C 612.217 329.719 636.040 311.950 655.535 302.215 C 673.452 293.268 699.745 286.395 719.503 283.127 C 740.588 279.639 769.390 278.851 790.694 280.548 C 805.610 281.736 825.132 286.420 839.701 289.834 C 849.864 292.215 863.174 296.334 873.233 299.120 C 873.238 299.112 903.592 244.543 920.480 223.943 C 936.314 204.629 960.515 181.132 980.817 166.585 C 1000.318 152.612 1029.080 137.656 1051.583 129.340 C 1070.091 122.501 1095.973 115.968 1115.646 114.442 C 1140.458 112.518 1174.150 115.259 1198.330 121.146 C 1223.534 127.283 1255.469 141.874 1278.036 154.667 C 1296.545 165.160 1320.403 181.282 1335.394 196.382 C 1355.399 216.533 1376.420 248.792 1389.771 273.852 C 1398.025 289.345 1406.496 311.369 1411.374 328.231 C 1414.978 340.693 1417.109 357.953 1419.568 370.690 C 1419.575 370.694 1470.175 394.334 1489.619 408.101 C 1509.565 422.224 1534.113 444.307 1549.648 463.173 C 1566.615 483.778 1587.141 513.962 1595.909 539.172 C 1602.917 559.322 1606.426 588.363 1605.271 609.665 C 1603.619 640.120 1593.555 680.893 1579.698 708.064 C 1567.593 731.801 1544.635 760.550 1523.639 776.956 C 1507.499 789.566 1482.042 801.696 1462.175 806.675 C 1438.183 812.688 1404.369 811.989 1379.773 809.377 C 1360.909 807.373 1336.749 798.975 1318.310 794.517 C 1318.304 794.523 1276.910 844.288 1253.994 859.272 C 1229.852 875.058 1192.714 889.093 1164.254 893.787 C 1139.550 897.862 1105.358 896.004 1080.844 890.912 C 1057.248 886.010 1027.222 873.107 1006.061 861.574 C 993.660 854.815 979.082 842.648 967.520 834.537 C 967.509 834.541 892.348 867.145 858.140 873.964 C 824.228 880.725 777.475 882.239 743.006 879.475 C 720.594 877.678 690.770 872.113 669.517 864.777 C 648.313 857.458 621.286 843.746 602.763 831.095 C 593.729 824.924 575.204 807.211 575.204 807.211 C 551.127 810.723 519.260 817.982 494.946 818.918 C 473.929 819.727 445.460 819.187 424.986 814.376 C 406.310 809.987 381.562 800.965 365.930 789.845 C 349.883 778.429 332.359 757.724 322.319 740.783 C 312.429 724.095 303.678 699.047 300.513 679.909 C 296.688 656.776 297.676 624.753 302.331 601.772 C 306.220 582.573 314.762 556.977 325.953 540.900 C 337.980 523.622 360.526 505.273 378.650 494.563 C 396.613 483.948 423.734 475.623 444.066 470.940 C 460.903 467.063 484.034 465.042 501.305 464.580 Z"/>
<path fill="none" stroke="#ffffff" stroke-width="1" stroke-linecap="butt" stroke-linejoin="round" d="M 501.305 464.580 C 512.218 464.288 526.745 465.852 537.648 466.397 "/>
<path fill="none" stroke="#ffffff" stroke-width="1" stroke-linecap="butt" stroke-linejoin="round" d="M 537.648 466.397 C 537.650 466.391 547.804 425.325 555.455 409.001 "/>
<path fill="none" stroke="#ffffff" stroke-width="1" stroke-linecap="butt" stroke-linejoin="round" d="M 555.455 409.001 C 565.128 388.362 581.575 362.104 597.241 345.548 "/>
<path fill="none" stroke="#ffffff" stroke-width="1" stroke-linecap="butt" stroke-linejoin="round" d="M 597.241 345.548 C 612.217 329.719 636.040 311.950 655.535 302.215 "/>
<path fill="none" stroke="#ffffff" stroke-width="1" stroke-linecap="butt" stroke-linejoin="round" d="M 655.535 302.215 C 673.452 293.268 699.745 286.395 719.503 283.127 "/>
<path fill="none" stroke="#ffffff" stroke-width="1" stroke-linecap="butt" stroke-linejoin="round" d="M 719.503 283.127 C 740.588 279.639 769.390 278.851 790.694 280.548 "/>
<path fill="none" stroke="#ffffff" stroke-width="1" stroke-linecap="butt" stroke-linejoin="round" d="M 790.694 280.548 C 805.610 281.736 825.132 286.420 839.701 289.834 "/>
<path fill="none" stroke="#ffffff" stroke-width="1" stroke-linecap="butt" stroke-linejoin="round" d="M 839.701 289.834 C 849.864 292.215 863.174 296.334 873.233 299.120 "/>
<path fill="none" stroke="#ffffff" stroke-width="1" stroke-linecap="butt" stroke-linejoin="round" d="M 873.233 299.120 C 873.238 299.112 903.592 244.543 920.480 223.943 "/>
<path fill="none" stroke="#ffffff" stroke-width="1" stroke-linecap="butt" stroke-linejoin="round" d="M 920.480 223.943 C 936.314 204.629 960.515 181.132 980.817 166.585 "/>
<path fill="none" stroke="#ffffff" stroke-width="1" stroke-linecap="butt" stroke-linejoin="round" d="M 980.817 166.585 C 1000.318 152.612 1029.080 137.656 1051.583 129.340 "/>
<path fill="none" stroke="#ffffff" stroke-width="1" stroke-linecap="butt" stroke-linejoin="round" d="M 1051.583 129.340 C 1070.091 122.501 1095.973 115.968 1115.646 114.442 "/>
<path fill="none" stroke="#ffffff" stroke-width="1" stroke-linecap="butt" stroke-linejoin="round" d="M 1115.646 114.442 C 1140.458 112.518 1174.150 115.259 1198.330 121.146 "/>
<path fill="none" stroke="#ffffff" stroke-width="1" stroke-linecap="butt" stroke-linejoin="round" d="M 1198.330 121.146 C 1223.534 127.283 1255.469 141.874 1278.036 154.667 "/>
<path fill="none" stroke="#ffffff" stroke-width="1" stroke-linecap="butt" stroke-linejoin="round" d="M 1278.036 154.667 C 1296.545 165.160 1320.403 181.282 1335.394 196.382 "/>
<path fill="none" stroke="#ffffff" stroke-width="1" stroke-linecap="butt" stroke-linejoin="round" d="M 1335.394 196.382 C 1355.399 216.533 1376.420 248.792 1389.771 273.852 "/>
<path fill="none" stroke="#ffffff" stroke-width="1" stroke-linecap="butt" stroke-linejoin="round" d="M 1389.771 273.852 C 1398.025 289.345 1406.496 311.369 1411.374 328.231 "/>
<path fill="none" stroke="#ffffff" stroke-width="1" stroke-linecap="butt" stroke-linejoin="round" d="M 1411.374 328.231 C 1414.978 340.693 1417.109 357.953 1419.568 370.690 "/>
<path fill="none" stroke="#ffffff" stroke-width="1" stroke-linecap="butt" stroke-linejoin="round" d="M 1419.568 370.690 C 1419.575 370.694 1470.175 394.334 1489.619 408.101 "/>
<path fill="none" stroke="#ffffff" stroke-width="1" stroke-linecap="butt" stroke-linejoin="round" d="M 1489.619 408.101 C 1509.565 422.224 1534.113 444.307 1549.648 463.173 "/>
<path fill="none" stroke="#ffffff" stroke-width="1" stroke-linecap="butt" stroke-linejoin="round" d="M 1549.648 463.173 C 1566.615 483.778 1587.141 513.962 1595.909 539.172 "/>
<path fill="none" stroke="#ffffff" stroke-width="1" stroke-linecap="butt" stroke-linejoin="round" d="M 1595.909 539.172 C 1602.917 559.322 1606.426 588.363 1605.271 609.665 "/>
<path fill="none" stroke="#ffffff" stroke-width="1" stroke-linecap="butt" stroke-linejoin="round" d="M 1605.271 609.665 C 1603.619 640.120 1593.555 680.893 1579.698 708.064 "/>
<path fill="none" stroke="#ffffff" stroke-width="1" stroke-linecap="butt" stroke-linejoin="round" d="M 1579.698 708.064 C 1567.593 731.801 1544.635 760.550 1523.639 776.956 "/>
<path fill="none" stroke="#ffffff" stroke-width="1" stroke-linecap="butt" stroke-linejoin="round" d="M 1523.639 776.956 C 1507.499 789.566 1482.042 801.696 1462.175 806.675 "/>
<path fill="none" stroke="#ffffff" stroke-width="1" stroke-linecap="butt" stroke-linejoin="round" d="M 1462.175 806.675 C 1438.183 812.688 1404.369 811.989 1379.773 809.377 "/>
<path fill="none" stroke="#ffffff" stroke-width="1" stroke-linecap="butt" stroke-linejoin="round" d="M 1379.773 809.377 C 1360.909 807.373 1336.749 798.975 1318.310 794.517 "/>
<path fill="none" stroke="#ffffff" stroke-width="1" stroke-linecap="butt" stroke-linejoin="round" d="M 1318.310 794.517 C 1318.304 794.523 1276.910 844.288 1253.994 859.272 "/>
<path fill="none" stroke="#ffffff" stroke-width="1" stroke-linecap="butt" stroke-linejoin="round" d="M 1253.994 859.272 C 1229.852 875.058 1192.714 889.093 1164.254 893.787 "/>
<path fill="none" stroke="#ffffff" stroke-width="1" stroke-linecap="butt" stroke-linejoin="round" d="M 1164.254 893.787 C 1139.550 897.862 1105.358 896.004 1080.844 890.912 "/>
<path fill="none" stroke="#ffffff" stroke-width="1" stroke-linecap="butt" stroke-linejoin="round" d="M 1080.844 890.912 C 1057.248 886.010 1027.222 873.107 1006.061 861.574 "/>
<path fill="none" stroke="#ffffff" stroke-width="1" stroke-linecap="butt" stroke-linejoin="round" d="M 1006.061 861.574 C 993.660 854.815 979.082 842.648 967.520 834.537 "/>
<path fill="none" stroke="#ffffff" stroke-width="1" stroke-linecap="butt" stroke-linejoin="round" d="M 967.520 834.537 C 967.509 834.541 892.348 867.145 858.140 873.964 "/>
<path fill="none" stroke="#ffffff" stroke-width="1" stroke-linecap="butt" stroke-linejoin="round" d="M 858.140 873.964 C 824.228 880.725 777.475 882.239 743.006 879.475 "/>
<path fill="none" stroke="#ffffff" stroke-width="1" stroke-linecap="butt" stroke-linejoin="round" d="M 743.006 879.475 C 720.594 877.678 690.770 872.113 669.517 864.777 "/>
<path fill="none" stroke="#ffffff" stroke-width="1" stroke-linecap="butt" stroke-linejoin="round" d="M 669.517 864.777 C 648.313 857.458 621.286 843.746 602.763 831.095 "/>
<path fill="none" stroke="#ffffff" stroke-width="1" stroke-linecap="butt" stroke-linejoin="round" d="M 602.763 831.095 C 593.729 824.924 575.204 807.211 575.204 807.211 "/>
<path fill="none" stroke="#ffffff" stroke-width="1" stroke-linecap="butt" stroke-linejoin="round" d="M 575.204 807.211 C 551.127 810.723 519.260 817.982 494.946 818.918 "/>
<path fill="none" stroke="#ffffff" stroke-width="1" stroke-linecap="butt" stroke-linejoin="round" d="M 494.946 818.918 C 473.929 819.727 445.460 819.187 424.986 814.376 "/>
<path fill="none" stroke="#ffffff" stroke-width="1" stroke-linecap="butt" stroke-linejoin="round" d="M 424.986 814.376 C 406.310 809.987 381.562 800.965 365.930 789.845 "/>
<path fill="none" stroke="#ffffff" stroke-width="1" stroke-linecap="butt" stroke-linejoin="round" d="M 365.930 789.845 C 349.883 778.429 332.359 757.724 322.319 740.783 "/>
<path fill="none" stroke="#ffffff" stroke-width="1" stroke-linecap="butt" stroke-linejoin="round" d="M 322.319 740.783 C 312.429 724.095 303.678 699.047 300.513 679.909 "/>
<path fill="none" stroke="#ffffff" stroke-width="1" stroke-linecap="butt" stroke-linejoin="round" d="M 300.513 679.909 C 296.688 656.776 297.676 624.753 302.331 601.772 "/>
<path fill="none" stroke="#ffffff" stroke-width="1" stroke-linecap="butt" stroke-linejoin="round" d="M 302.331 601.772 C 306.220 582.573 314.762 556.977 325.953 540.900 "/>
<path fill="none" stroke="#ffffff" stroke-width="1" stroke-linecap="butt" stroke-linejoin="round" d="M 325.953 540.900 C 337.980 523.622 360.526 505.273 378.650 494.563 "/>
<path fill="none" stroke="#ffffff" stroke-width="1" stroke-linecap="butt" stroke-linejoin="round" d="M 378.650 494.563 C 396.613 483.948 423.734 475.623 444.066 470.940 "/>
<path fill="none" stroke="#ffffff" stroke-width="1" stroke-linecap="butt" stroke-linejoin="round" d="M 444.066 470.940 C 460.903 467.063 484.034 465.042 501.305 464.580 "/>
<path fill="#ffffff" fill-rule="evenodd" stroke="none" d="M 501.305 464.580 C 512.218 464.288 526.745 465.852 537.648 466.397 C 537.650 466.391 547.804 425.325 555.455 409.001 C 565.128 388.362 581.575 362.104 597.241 345.548 C 612.217 329.719 636.040 311.950 655.535 302.215 C 673.452 293.268 699.745 286.395 719.503 283.127 C 740.588 279.639 769.390 278.851 790.694 280.548 C 805.610 281.736 825.132 286.420 839.701 289.834 C 849.864 292.215 863.174 296.334 873.233 299.120 C 873.238 299.112 903.592 244.543 920.480 223.943 C 936.314 204.629 960.515 181.132 980.817 166.585 C 1000.318 152.612 1029.080 137.656 1051.583 129.340 C 1070.091 122.501 1095.973 115.968 1115.646 114.442 C 1140.458 112.518 1174.150 115.259 1198.330 121.146 C 1223.534 127.283 1255.469 141.874 1278.036 154.667 C 1296.545 165.160 1320.403 181.282 1335.394 196.382 C 1355.399 216.533 1376.420 248.792 1389.771 273.852 C 1398.025 289.345 1406.496 311.369 1411.374 328.231 C 1414.978 340.693 1417.109 357.953 1419.568 370.690 C 1419.575 370.694 1470.175 394.334 1489.619 408.101 C 1509.565 422.224 1534.113 444.307 1549.648 463.173 C 1566.615 483.778 1587.141 513.962 1595.909 539.172 C 1602.917 559.322 1606.426 588.363 1605.271 609.665 C 1603.619 640.120 1593.555 680.893 1579.698 708.064 C 1567.593 731.801 1544.635 760.550 1523.639 776.956 C 1507.499 789.566 1482.042 801.696 1462.175 806.675 C 1438.183 812.688 1404.369 811.989 1379.773 809.377 C 1360.909 807.373 1336.749 798.975 1318.310 794.517 C 1318.304 794.523 1276.910 844.288 1253.994 859.272 C 1229.852 875.058 1192.714 889.093 1164.254 893.787 C 1139.550 897.862 1105.358 896.004 1080.844 890.912 C 1057.248 886.010 1027.222 873.107 1006.061 861.574 C 993.660 854.815 979.082 842.648 967.520 834.537 C 967.509 834.541 892.348 867.145 858.140 873.964 C 824.228 880.725 777.475 882.239 743.006 879.475 C 720.594 877.678 690.770 872.113 669.517 864.777 C 648.313 857.458 621.286 843.746 602.763 831.095 C 593.729 824.924 575.204 807.211 575.204 807.211 C 551.127 810.723 519.260 817.982 494.946 818.918 C 473.929 819.727 445.460 819.187 424.986 814.376 C 406.310 809.987 381.562 800.965 365.930 789.845 C 349.883 778.429 332.359 757.724 322.319 740.783 C 312.429 724.095 303.678 699.047 300.513 679.909 C 296.688 656.776 297.676 624.753 302.331 601.772 C 306.220 582.573 314.762 556.977 325.953 540.900 C 337.980 523.622 360.526 505.273 378.650 494.563 C 396.613 483.948 423.734 475.623 444.066 470.940 C 460.903 467.063 484.034 465.042 501.305 464.580 Z"/>
</clipPath>
<path fill="#ffffff" fill-rule="evenodd" fill-opacity="0.000000" stroke="none" d="M 501.305 464.580 C 512.218 464.288 526.745 465.852 537.648 466.397 C 537.650 466.391 547.804 425.325 555.455 409.001 C 565.128 388.362 581.575 362.104 597.241 345.548 C 612.217 329.719 636.040 311.950 655.535 302.215 C 673.452 293.268 699.745 286.395 719.503 283.127 C 740.588 279.639 769.390 278.851 790.694 280.548 C 805.610 281.736 825.132 286.420 839.701 289.834 C 849.864 292.215 863.174 296.334 873.233 299.120 C 873.238 299.112 903.592 244.543 920.480 223.943 C 936.314 204.629 960.515 181.132 980.817 166.585 C 1000.318 152.612 1029.080 137.656 1051.583 129.340 C 1070.091 122.501 1095.973 115.968 1115.646 114.442 C 1140.458 112.518 1174.150 115.259 1198.330 121.146 C 1223.534 127.283 1255.469 141.874 1278.036 154.667 C 1296.545 165.160 1320.403 181.282 1335.394 196.382 C 1355.399 216.533 1376.420 248.792 1389.771 273.852 C 1398.025 289.345 1406.496 311.369 1411.374 328.231 C 1414.978 340.693 1417.109 357.953 1419.568 370.690 C 1419.575 370.694 1470.175 394.334 1489.619 408.101 C 1509.565 422.224 1534.113 444.307 1549.648 463.173 C 1566.615 483.778 1587.141 513.962 1595.909 539.172 C 1602.917 559.322 1606.426 588.363 1605.271 609.665 C 1603.619 640.120 1593.555 680.893 1579.698 708.064 C 1567.593 731.801 1544.635 760.550 1523.639 776.956 C 1507.499 789.566 1482.042 801.696 1462.175 806.675 C 1438.183 812.688 1404.369 811.989 1379.773 809.377 C 1360.909 807.373 1336.749 798.975 1318.310 794.517 C 1318.304 794.523 1276.910 844.288 1253.994 859.272 C 1229.852 875.058 1192.714 889.093 1164.254 893.787 C 1139.550 897.862 1105.358 896.004 1080.844 890.912 C 1057.248 886.010 1027.222 873.107 1006.061 861.574 C 993.660 854.815 979.082 842.648 967.520 834.537 C 967.509 834.541 892.348 867.145 858.140 873.964 C 824.228 880.725 777.475 882.239 743.006 879.475 C 720.594 877.678 690.770 872.113 669.517 864.777 C 648.313 857.458 621.286 843.746 602.763 831.095 C 593.729 824.924 575.204 807.211 575.204 807.211 C 551.127 810.723 519.260 817.982 494.946 818.918 C 473.929 819.727 445.460 819.187 424.986 814.376 C 406.310 809.987 381.562 800.965 365.930 789.845 C 349.883 778.429 332.359 757.724 322.319 740.783 C 312.429 724.095 303.678 699.047 300.513 679.909 C 296.688 656.776 297.676 624.753 302.331 601.772 C 306.220 582.573 314.762 556.977 325.953 540.900 C 337.980 523.622 360.526 505.273 378.650 494.563 C 396.613 483.948 423.734 475.623 444.066 470.940 C 460.903 467.063 484.034 465.042 501.305 464.580 Z"/>
<path fill="none" stroke="#000000" stroke-width="11" stroke-linecap="round" stroke-linejoin="round" d="M 537.648 466.397 C 537.648 466.397 537.648 466.397 537.648 466.397 C 526.745 465.852 512.218 464.288 501.305 464.580 C 484.034 465.042 460.903 467.063 444.066 470.940 C 423.734 475.623 396.613 483.948 378.650 494.563 C 360.526 505.273 337.980 523.622 325.953 540.900 C 314.762 556.977 306.220 582.573 302.331 601.772 C 297.676 624.753 296.688 656.776 300.513 679.909 C 303.678 699.047 312.429 724.095 322.319 740.783 C 332.359 757.724 349.883 778.429 365.930 789.845 C 381.562 800.965 406.310 809.987 424.986 814.376 C 445.460 819.187 473.929 819.727 494.946 818.918 C 519.260 817.982 551.127 810.723 575.204 807.211 C 575.204 807.211 593.729 824.924 602.763 831.095 C 621.286 843.746 648.313 857.458 669.517 864.777 C 690.770 872.113 720.594 877.678 743.006 879.475 C 777.475 882.239 824.228 880.725 858.140 873.964 C 892.348 867.145 967.509 834.541 967.520 834.537 C 967.520 834.537 967.520 834.537 967.520 834.537 C 979.082 842.648 993.660 854.815 1006.061 861.574 C 1027.222 873.107 1057.248 886.010 1080.844 890.912 C 1105.358 896.004 1139.550 897.862 1164.254 893.787 C 1192.714 889.093 1229.852 875.058 1253.994 859.272 C 1276.910 844.288 1318.304 794.523 1318.310 794.517 C 1318.310 794.517 1318.310 794.517 1318.310 794.517 C 1336.749 798.975 1360.909 807.373 1379.773 809.377 C 1404.369 811.989 1438.183 812.688 1462.175 806.675 C 1482.042 801.696 1507.499 789.566 1523.639 776.956 C 1544.635 760.550 1567.593 731.801 1579.698 708.064 C 1593.555 680.893 1603.619 640.120 1605.271 609.665 C 1606.426 588.363 1602.917 559.322 1595.909 539.172 C 1587.141 513.962 1566.615 483.778 1549.648 463.173 C 1534.113 444.307 1509.565 422.224 1489.619 408.101 C 1470.175 394.334 1419.575 370.694 1419.568 370.690 C 1419.568 370.690 1419.568 370.690 1419.568 370.690 C 1417.109 357.953 1414.978 340.693 1411.374 328.231 C 1406.496 311.369 1398.025 289.345 1389.771 273.852 C 1376.420 248.792 1355.399 216.533 1335.394 196.382 C 1320.403 181.282 1296.545 165.160 1278.036 154.667 C 1255.469 141.874 1223.534 127.283 1198.330 121.146 C 1174.150 115.259 1140.458 112.518 1115.646 114.442 C 1095.973 115.968 1070.091 122.501 1051.583 129.340 C 1029.080 137.656 1000.318 152.612 980.817 166.585 C 960.515 181.132 936.314 204.629 920.480 223.943 C 903.592 244.543 873.238 299.112 873.233 299.120 C 873.233 299.120 873.233 299.120 873.233 299.120 C 863.174 296.334 849.864 292.215 839.701 289.834 C 825.132 286.420 805.610 281.736 790.694 280.548 C 769.390 278.851 740.588 279.639 719.503 283.127 C 699.745 286.395 673.452 293.268 655.535 302.215 C 636.040 311.950 612.217 329.719 597.241 345.548 C 581.575 362.104 565.128 388.362 555.455 409.001 C 547.804 425.325 537.650 466.391 537.648 466.397 "/>
<path fill="none" stroke="#ffffff" stroke-width="1" stroke-linecap="butt" stroke-linejoin="round" d="M 501.305 464.580 C 512.218 464.288 526.745 465.852 537.648 466.397 "/>
<path fill="none" stroke="#ffffff" stroke-width="1" stroke-linecap="butt" stroke-linejoin="round" d="M 537.648 466.397 C 537.650 466.391 547.804 425.325 555.455 409.001 "/>
<path fill="none" stroke="#ffffff" stroke-width="1" stroke-linecap="butt" stroke-linejoin="round" d="M 555.455 409.001 C 565.128 388.362 581.575 362.104 597.241 345.548 "/>
<path fill="none" stroke="#ffffff" stroke-width="1" stroke-linecap="butt" stroke-linejoin="round" d="M 597.241 345.548 C 612.217 329.719 636.040 311.950 655.535 302.215 "/>
<path fill="none" stroke="#ffffff" stroke-width="1" stroke-linecap="butt" stroke-linejoin="round" d="M 655.535 302.215 C 673.452 293.268 699.745 286.395 719.503 283.127 "/>
<path fill="none" stroke="#ffffff" stroke-width="1" stroke-linecap="butt" stroke-linejoin="round" d="M 719.503 283.127 C 740.588 279.639 769.390 278.851 790.694 280.548 "/>
<path fill="none" stroke="#ffffff" stroke-width="1" stroke-linecap="butt" stroke-linejoin="round" d="M 790.694 280.548 C 805.610 281.736 825.132 286.420 839.701 289.834 "/>
<path fill="none" stroke="#ffffff" stroke-width="1" stroke-linecap="butt" stroke-linejoin="round" d="M 839.701 289.834 C 849.864 292.215 863.174 296.334 873.233 299.120 "/>
<path fill="none" stroke="#ffffff" stroke-width="1" stroke-linecap="butt" stroke-linejoin="round" d="M 873.233 299.120 C 873.238 299.112 903.592 244.543 920.480 223.943 "/>
<path fill="none" stroke="#ffffff" stroke-width="1" stroke-linecap="butt" stroke-linejoin="round" d="M 920.480 223.943 C 936.314 204.629 960.515 181.132 980.817 166.585 "/>
<path fill="none" stroke="#ffffff" stroke-width="1" stroke-linecap="butt" stroke-linejoin="round" d="M 980.817 166.585 C 1000.318 152.612 1029.080 137.656 1051.583 129.340 "/>
<path fill="none" stroke="#ffffff" stroke-width="1" stroke-linecap="butt" stroke-linejoin="round" d="M 1051.583 129.340 C 1070.091 122.501 1095.973 115.968 1115.646 114.442 "/>
<path fill="none" stroke="#ffffff" stroke-width="1" stroke-linecap="butt" stroke-linejoin="round" d="M 1115.646 114.442 C 1140.458 112.518 1174.150 115.259 1198.330 121.146 "/>
<path fill="none" stroke="#ffffff" stroke-width="1" stroke-linecap="butt" stroke-linejoin="round" d="M 1198.330 121.146 C 1223.534 127.283 1255.469 141.874 1278.036 154.667 "/>
<path fill="none" stroke="#ffffff" stroke-width="1" stroke-linecap="butt" stroke-linejoin="round" d="M 1278.036 154.667 C 1296.545 165.160 1320.403 181.282 1335.394 196.382 "/>
<path fill="none" stroke="#ffffff" stroke-width="1" stroke-linecap="butt" stroke-linejoin="round" d="M 1335.394 196.382 C 1355.399 216.533 1376.420 248.792 1389.771 273.852 "/>
<path fill="none" stroke="#ffffff" stroke-width="1" stroke-linecap="butt" stroke-linejoin="round" d="M 1389.771 273.852 C 1398.025 289.345 1406.496 311.369 1411.374 328.231 "/>
<path fill="none" stroke="#ffffff" stroke-width="1" stroke-linecap="butt" stroke-linejoin="round" d="M 1411.374 328.231 C 1414.978 340.693 1417.109 357.953 1419.568 370.690 "/>
<path fill="none" stroke="#ffffff" stroke-width="1" stroke-linecap="butt" stroke-linejoin="round" d="M 1419.568 370.690 C 1419.575 370.694 1470.175 394.334 1489.619 408.101 "/>
<path fill="none" stroke="#ffffff" stroke-width="1" stroke-linecap="butt" stroke-linejoin="round" d="M 1489.619 408.101 C 1509.565 422.224 1534.113 444.307 1549.648 463.173 "/>
<path fill="none" stroke="#ffffff" stroke-width="1" stroke-linecap="butt" stroke-linejoin="round" d="M 1549.648 463.173 C 1566.615 483.778 1587.141 513.962 1595.909 539.172 "/>
<path fill="none" stroke="#ffffff" stroke-width="1" stroke-linecap="butt" stroke-linejoin="round" d="M 1595.909 539.172 C 1602.917 559.322 1606.426 588.363 1605.271 609.665 "/>
<path fill="none" stroke="#ffffff" stroke-width="1" stroke-linecap="butt" stroke-linejoin="round" d="M 1605.271 609.665 C 1603.619 640.120 1593.555 680.893 1579.698 708.064 "/>
<path fill="none" stroke="#ffffff" stroke-width="1" stroke-linecap="butt" stroke-linejoin="round" d="M 1579.698 708.064 C 1567.593 731.801 1544.635 760.550 1523.639 776.956 "/>
<path fill="none" stroke="#ffffff" stroke-width="1" stroke-linecap="butt" stroke-linejoin="round" d="M 1523.639 776.956 C 1507.499 789.566 1482.042 801.696 1462.175 806.675 "/>
<path fill="none" stroke="#ffffff" stroke-width="1" stroke-linecap="butt" stroke-linejoin="round" d="M 1462.175 806.675 C 1438.183 812.688 1404.369 811.989 1379.773 809.377 "/>
<path fill="none" stroke="#ffffff" stroke-width="1" stroke-linecap="butt" stroke-linejoin="round" d="M 1379.773 809.377 C 1360.909 807.373 1336.749 798.975 1318.310 794.517 "/>
<path fill="none" stroke="#ffffff" stroke-width="1" stroke-linecap="butt" stroke-linejoin="round" d="M 1318.310 794.517 C 1318.304 794.523 1276.910 844.288 1253.994 859.272 "/>
<path fill="none" stroke="#ffffff" stroke-width="1" stroke-linecap="butt" stroke-linejoin="round" d="M 1253.994 859.272 C 1229.852 875.058 1192.714 889.093 1164.254 893.787 "/>
<path fill="none" stroke="#ffffff" stroke-width="1" stroke-linecap="butt" stroke-linejoin="round" d="M 1164.254 893.787 C 1139.550 897.862 1105.358 896.004 1080.844 890.912 "/>
<path fill="none" stroke="#ffffff" stroke-width="1" stroke-linecap="butt" stroke-linejoin="round" d="M 1080.844 890.912 C 1057.248 886.010 1027.222 873.107 1006.061 861.574 "/>
<path fill="none" stroke="#ffffff" stroke-width="1" stroke-linecap="butt" stroke-linejoin="round" d="M 1006.061 861.574 C 993.660 854.815 979.082 842.648 967.520 834.537 "/>
<path fill="none" stroke="#ffffff" stroke-width="1" stroke-linecap="butt" stroke-linejoin="round" d="M 967.520 834.537 C 967.509 834.541 892.348 867.145 858.140 873.964 "/>
<path fill="none" stroke="#ffffff" stroke-width="1" stroke-linecap="butt" stroke-linejoin="round" d="M 858.140 873.964 C 824.228 880.725 777.475 882.239 743.006 879.475 "/>
<path fill="none" stroke="#ffffff" stroke-width="1" stroke-linecap="butt" stroke-linejoin="round" d="M 743.006 879.475 C 720.594 877.678 690.770 872.113 669.517 864.777 "/>
<path fill="none" stroke="#ffffff" stroke-width="1" stroke-linecap="butt" stroke-linejoin="round" d="M 669.517 864.777 C 648.313 857.458 621.286 843.746 602.763 831.095 "/>
<path fill="none" stroke="#ffffff" stroke-width="1" stroke-linecap="butt" stroke-linejoin="round" d="M 602.763 831.095 C 593.729 824.924 575.204 807.211 575.204 807.211 "/>
<path fill="none" stroke="#ffffff" stroke-width="1" stroke-linecap="butt" stroke-linejoin="round" d="M 575.204 807.211 C 551.127 810.723 519.260 817.982 494.946 818.918 "/>
<path fill="none" stroke="#ffffff" stroke-width="1" stroke-linecap="butt" stroke-linejoin="round" d="M 494.946 818.918 C 473.929 819.727 445.460 819.187 424.986 814.376 "/>
<path fill="none" stroke="#ffffff" stroke-width="1" stroke-linecap="butt" stroke-linejoin="round" d="M 424.986 814.376 C 406.310 809.987 381.562 800.965 365.930 789.845 "/>
<path fill="none" stroke="#ffffff" stroke-width="1" stroke-linecap="butt" stroke-linejoin="round" d="M 365.930 789.845 C 349.883 778.429 332.359 757.724 322.319 740.783 "/>
<path fill="none" stroke="#ffffff" stroke-width="1" stroke-linecap="butt" stroke-linejoin="round" d="M 322.319 740.783 C 312.429 724.095 303.678 699.047 300.513 679.909 "/>
<path fill="none" stroke="#ffffff" stroke-width="1" stroke-linecap="butt" stroke-linejoin="round" d="M 300.513 679.909 C 296.688 656.776 297.676 624.753 302.331 601.772 "/>
<path fill="none" stroke="#ffffff" stroke-width="1" stroke-linecap="butt" stroke-linejoin="round" d="M 302.331 601.772 C 306.220 582.573 314.762 556.977 325.953 540.900 "/>
<path fill="none" stroke="#ffffff" stroke-width="1" stroke-linecap="butt" stroke-linejoin="round" d="M 325.953 540.900 C 337.980 523.622 360.526 505.273 378.650 494.563 "/>
<path fill="none" stroke="#ffffff" stroke-width="1" stroke-linecap="butt" stroke-linejoin="round" d="M 378.650 494.563 C 396.613 483.948 423.734 475.623 444.066 470.940 "/>
<path fill="none" stroke="#ffffff" stroke-width="1" stroke-linecap="butt" stroke-linejoin="round" d="M 444.066 470.940 C 460.903 467.063 484.034 465.042 501.305 464.580 "/>
<path fill="#ffffff" fill-rule="evenodd" stroke="none" d="M 501.305 464.580 C 512.218 464.288 526.745 465.852 537.648 466.397 C 537.650 466.391 547.804 425.325 555.455 409.001 C 565.128 388.362 581.575 362.104 597.241 345.548 C 612.217 329.719 636.040 311.950 655.535 302.215 C 673.452 293.268 699.745 286.395 719.503 283.127 C 740.588 279.639 769.390 278.851 790.694 280.548 C 805.610 281.736 825.132 286.420 839.701 289.834 C 849.864 292.215 863.174 296.334 873.233 299.120 C 873.238 299.112 903.592 244.543 920.480 223.943 C 936.314 204.629 960.515 181.132 980.817 166.585 C 1000.318 152.612 1029.080 137.656 1051.583 129.340 C 1070.091 122.501 1095.973 115.968 1115.646 114.442 C 1140.458 112.518 1174.150 115.259 1198.330 121.146 C 1223.534 127.283 1255.469 141.874 1278.036 154.667 C 1296.545 165.160 1320.403 181.282 1335.394 196.382 C 1355.399 216.533 1376.420 248.792 1389.771 273.852 C 1398.025 289.345 1406.496 311.369 1411.374 328.231 C 1414.978 340.693 1417.109 357.953 1419.568 370.690 C 1419.575 370.694 1470.175 394.334 1489.619 408.101 C 1509.565 422.224 1534.113 444.307 1549.648 463.173 C 1566.615 483.778 1587.141 513.962 1595.909 539.172 C 1602.917 559.322 1606.426 588.363 1605.271 609.665 C 1603.619 640.120 1593.555 680.893 1579.698 708.064 C 1567.593 731.801 1544.635 760.550 1523.639 776.956 C 1507.499 789.566 1482.042 801.696 1462.175 806.675 C 1438.183 812.688 1404.369 811.989 1379.773 809.377 C 1360.909 807.373 1336.749 798.975 1318.310 794.517 C 1318.304 794.523 1276.910 844.288 1253.994 859.272 C 1229.852 875.058 1192.714 889.093 1164.254 893.787 C 1139.550 897.862 1105.358 896.004 1080.844 890.912 C 1057.248 886.010 1027.222 873.107 1006.061 861.574 C 993.660 854.815 979.082 842.648 967.520 834.537 C 967.509 834.541 892.348 867.145 858.140 873.964 C 824.228 880.725 777.475 882.239 743.006 879.475 C 720.594 877.678 690.770 872.113 669.517 864.777 C 648.313 857.458 621.286 843.746 602.763 831.095 C 593.729 824.924 575.204 807.211 575.204 807.211 C 551.127 810.723 519.260 817.982 494.946 818.918 C 473.929 819.727 445.460 819.187 424.986 814.376 C 406.310 809.987 381.562 800.965 365.930 789.845 C 349.883 778.429 332.359 757.724 322.319 740.783 C 312.429 724.095 303.678 699.047 300.513 679.909 C 296.688 656.776 297.676 624.753 302.331 601.772 C 306.220 582.573 314.762 556.977 325.953 540.900 C 337.980 523.622 360.526 505.273 378.650 494.563 C 396.613 483.948 423.734 475.623 444.066 470.940 C 460.903 467.063 484.034 465.042 501.305 464.580 Z"/>
<path fill="none" stroke="#000000" stroke-width="11" stroke-opacity="0.000000" stroke-linecap="round" stroke-linejoin="round" d="M 537.648 466.397 C 537.648 466.397 537.648 466.397 537.648 466.397 C 526.745 465.852 512.218 464.288 501.305 464.580 C 484.034 465.042 460.903 467.063 444.066 470.940 C 423.734 475.623 396.613 483.948 378.650 494.563 C 360.526 505.273 337.980 523.622 325.953 540.900 C 314.762 556.977 306.220 582.573 302.331 601.772 C 297.676 624.753 296.688 656.776 300.513 679.909 C 303.678 699.047 312.429 724.095 322.319 740.783 C 332.359 757.724 349.883 778.429 365.930 789.845 C 381.562 800.965 406.310 809.987 424.986 814.376 C 445.460 819.187 473.929 819.727 494.946 818.918 C 519.260 817.982 551.127 810.723 575.204 807.211 C 575.204 807.211 593.729 824.924 602.763 831.095 C 621.286 843.746 648.313 857.458 669.517 864.777 C 690.770 872.113 720.594 877.678 743.006 879.475 C 777.475 882.239 824.228 880.725 858.140 873.964 C 892.348 867.145 967.509 834.541 967.520 834.537 C 967.520 834.537 967.520 834.537 967.520 834.537 C 979.082 842.648 993.660 854.815 1006.061 861.574 C 1027.222 873.107 1057.248 886.010 1080.844 890.912 C 1105.358 896.004 1139.550 897.862 1164.254 893.787 C 1192.714 889.093 1229.852 875.058 1253.994 859.272 C 1276.910 844.288 1318.304 794.523 1318.310 794.517 C 1318.310 794.517 1318.310 794.517 1318.310 794.517 C 1336.749 798.975 1360.909 807.373 1379.773 809.377 C 1404.369 811.989 1438.183 812.688 1462.175 806.675 C 1482.042 801.696 1507.499 789.566 1523.639 776.956 C 1544.635 760.550 1567.593 731.801 1579.698 708.064 C 1593.555 680.893 1603.619 640.120 1605.271 609.665 C 1606.426 588.363 1602.917 559.322 1595.909 539.172 C 1587.141 513.962 1566.615 483.778 1549.648 463.173 C 1534.113 444.307 1509.565 422.224 1489.619 408.101 C 1470.175 394.334 1419.575 370.694 1419.568 370.690 C 1419.568 370.690 1419.568 370.690 1419.568 370.690 C 1417.109 357.953 1414.978 340.693 1411.374 328.231 C 1406.496 311.369 1398.025 289.345 1389.771 273.852 C 1376.420 248.792 1355.399 216.533 1335.394 196.382 C 1320.403 181.282 1296.545 165.160 1278.036 154.667 C 1255.469 141.874 1223.534 127.283 1198.330 121.146 C 1174.150 115.259 1140.458 112.518 1115.646 114.442 C 1095.973 115.968 1070.091 122.501 1051.583 129.340 C 1029.080 137.656 1000.318 152.612 980.817 166.585 C 960.515 181.132 936.314 204.629 920.480 223.943 C 903.592 244.543 873.238 299.112 873.233 299.120 C 873.233 299.120 873.233 299.120 873.233 299.120 C 863.174 296.334 849.864 292.215 839.701 289.834 C 825.132 286.420 805.610 281.736 790.694 280.548 C 769.390 278.851 740.588 279.639 719.503 283.127 C 699.745 286.395 673.452 293.268 655.535 302.215 C 636.040 311.950 612.217 329.719 597.241 345.548 C 581.575 362.104 565.128 388.362 555.455 409.001 C 547.804 425.325 537.650 466.391 537.648 466.397 "/>
<path fill="#68c5ff" fill-rule="evenodd" stroke="none" d="M 582.845 753.745 C 582.845 753.745 582.845 753.745 582.845 753.745 C 564.783 758.856 541.248 768.327 522.638 770.784 C 489.512 775.157 442.005 780.580 411.311 767.376 C 385.630 756.328 360.602 725.330 344.289 702.626 C 321.148 670.416 305.683 618.522 289.138 582.478 C 289.138 582.478 289.138 582.478 289.138 582.478 C 287.596 625.655 271.728 684.976 283.997 726.402 C 295.741 766.051 327.078 818.677 362.813 839.485 C 410.000 866.963 493.594 831.550 544.432 851.479 C 570.752 861.797 593.248 898.370 619.820 908.020 C 696.163 935.742 809.824 895.502 890.534 904.593 C 955.083 911.865 1036.391 957.247 1101.280 954.281 C 1172.890 951.009 1259.468 899.928 1327.447 877.180 C 1396.196 854.175 1505.423 852.696 1557.040 801.791 C 1598.376 761.025 1618.808 678.008 1623.862 620.172 C 1627.232 581.608 1603.638 492.741 1603.636 492.729 C 1597.961 524.090 1594.068 566.798 1584.718 597.265 C 1578.078 618.900 1568.149 648.257 1554.740 666.486 C 1534.127 694.508 1496.676 725.207 1465.364 740.361 C 1442.151 751.596 1407.334 760.535 1381.565 759.529 C 1357.082 758.573 1303.553 735.383 1303.545 735.381 C 1280.697 758.508 1255.795 796.667 1227.384 812.471 C 1194.237 830.909 1141.767 840.504 1103.853 839.406 C 1076.506 838.614 1039.843 829.004 1015.654 816.223 C 997.906 806.846 979.870 786.006 964.534 773.056 C 964.534 773.056 964.534 773.056 964.534 773.056 C 931.137 787.029 888.453 811.360 853.208 819.631 C 825.929 826.032 788.009 828.395 760.057 826.447 C 722.777 823.850 671.905 815.952 638.507 799.184 C 619.243 789.512 582.850 753.749 582.845 753.745 C 582.845 753.745 582.845 753.745 582.845 753.745 Z" clip-path="url(#81dc4626-5db9-4460-8ebd-9be618b3e150)"/>
<path fill="none" stroke="#000000" stroke-width="11" stroke-opacity="0.000000" stroke-linecap="round" stroke-linejoin="round" d="M 1603.636 492.729 C 1603.636 492.729 1603.636 492.729 1603.636 492.729 C 1603.638 492.741 1627.232 581.608 1623.862 620.172 C 1618.808 678.008 1598.376 761.025 1557.040 801.791 C 1505.423 852.696 1396.196 854.175 1327.447 877.180 C 1259.468 899.928 1172.890 951.009 1101.280 954.281 C 1036.391 957.247 955.083 911.865 890.534 904.593 C 809.824 895.502 696.163 935.742 619.820 908.020 C 593.248 898.370 570.752 861.797 544.432 851.479 C 493.594 831.550 410.000 866.963 362.813 839.485 C 327.078 818.677 295.741 766.051 283.997 726.402 C 271.728 684.976 287.596 625.655 289.138 582.478 C 305.683 618.522 321.148 670.416 344.289 702.626 C 360.602 725.330 385.630 756.328 411.311 767.376 C 442.005 780.580 489.512 775.157 522.638 770.784 C 541.248 768.327 564.783 758.856 582.845 753.745 C 582.845 753.745 582.845 753.745 582.845 753.745 C 582.850 753.749 619.243 789.512 638.507 799.184 C 671.905 815.952 722.777 823.850 760.057 826.447 C 788.009 828.395 825.929 826.032 853.208 819.631 C 888.453 811.360 931.137 787.029 964.534 773.056 C 979.870 786.006 997.906 806.846 1015.654 816.223 C 1039.843 829.004 1076.506 838.614 1103.853 839.406 C 1141.767 840.504 1194.237 830.909 1227.384 812.471 C 1255.795 796.667 1280.697 758.508 1303.545 735.381 C 1303.545 735.381 1303.545 735.381 1303.545 735.381 C 1303.553 735.383 1357.082 758.573 1381.565 759.529 C 1407.334 760.535 1442.151 751.596 1465.364 740.361 C 1496.676 725.207 1534.127 694.508 1554.740 666.486 C 1568.149 648.257 1578.078 618.900 1584.718 597.265 C 1594.068 566.798 1597.961 524.090 1603.636 492.729 M 289.138 582.478 C 289.138 582.478 289.138 582.478 289.138 582.478 M 964.534 773.056 C 964.534 773.056 964.534 773.056 964.534 773.056 M 582.845 753.745 C 582.845 753.745 582.845 753.745 582.845 753.745 " clip-path="url(#81dc4626-5db9-4460-8ebd-9be618b3e150)"/>
</g>
<path fill="#ffffff" fill-rule="evenodd" fill-opacity="0.000000" stroke="none" d="M 501.305 464.580 C 512.218 464.288 526.745 465.852 537.648 466.397 C 537.650 466.391 547.804 425.325 555.455 409.001 C 565.128 388.362 581.575 362.104 597.241 345.548 C 612.217 329.719 636.040 311.950 655.535 302.215 C 673.452 293.268 699.745 286.395 719.503 283.127 C 740.588 279.639 769.390 278.851 790.694 280.548 C 805.610 281.736 825.132 286.420 839.701 289.834 C 849.864 292.215 863.174 296.334 873.233 299.120 C 873.238 299.112 903.592 244.543 920.480 223.943 C 936.314 204.629 960.515 181.132 980.817 166.585 C 1000.318 152.612 1029.080 137.656 1051.583 129.340 C 1070.091 122.501 1095.973 115.968 1115.646 114.442 C 1140.458 112.518 1174.150 115.259 1198.330 121.146 C 1223.534 127.283 1255.469 141.874 1278.036 154.667 C 1296.545 165.160 1320.403 181.282 1335.394 196.382 C 1355.399 216.533 1376.420 248.792 1389.771 273.852 C 1398.025 289.345 1406.496 311.369 1411.374 328.231 C 1414.978 340.693 1417.109 357.953 1419.568 370.690 C 1419.575 370.694 1470.175 394.334 1489.619 408.101 C 1509.565 422.224 1534.113 444.307 1549.648 463.173 C 1566.615 483.778 1587.141 513.962 1595.909 539.172 C 1602.917 559.322 1606.426 588.363 1605.271 609.665 C 1603.619 640.120 1593.555 680.893 1579.698 708.064 C 1567.593 731.801 1544.635 760.550 1523.639 776.956 C 1507.499 789.566 1482.042 801.696 1462.175 806.675 C 1438.183 812.688 1404.369 811.989 1379.773 809.377 C 1360.909 807.373 1336.749 798.975 1318.310 794.517 C 1318.304 794.523 1276.910 844.288 1253.994 859.272 C 1229.852 875.058 1192.714 889.093 1164.254 893.787 C 1139.550 897.862 1105.358 896.004 1080.844 890.912 C 1057.248 886.010 1027.222 873.107 1006.061 861.574 C 993.660 854.815 979.082 842.648 967.520 834.537 C 967.509 834.541 892.348 867.145 858.140 873.964 C 824.228 880.725 777.475 882.239 743.006 879.475 C 720.594 877.678 690.770 872.113 669.517 864.777 C 648.313 857.458 621.286 843.746 602.763 831.095 C 593.729 824.924 575.204 807.211 575.204 807.211 C 551.127 810.723 519.260 817.982 494.946 818.918 C 473.929 819.727 445.460 819.187 424.986 814.376 C 406.310 809.987 381.562 800.965 365.930 789.845 C 349.883 778.429 332.359 757.724 322.319 740.783 C 312.429 724.095 303.678 699.047 300.513 679.909 C 296.688 656.776 297.676 624.753 302.331 601.772 C 306.220 582.573 314.762 556.977 325.953 540.900 C 337.980 523.622 360.526 505.273 378.650 494.563 C 396.613 483.948 423.734 475.623 444.066 470.940 C 460.903 467.063 484.034 465.042 501.305 464.580 Z"/>
<path fill="none" stroke="#000000" stroke-width="11" stroke-linecap="round" stroke-linejoin="round" d="M 537.648 466.397 C 537.648 466.397 537.648 466.397 537.648 466.397 C 526.745 465.852 512.218 464.288 501.305 464.580 C 484.034 465.042 460.903 467.063 444.066 470.940 C 423.734 475.623 396.613 483.948 378.650 494.563 C 360.526 505.273 337.980 523.622 325.953 540.900 C 314.762 556.977 306.220 582.573 302.331 601.772 C 297.676 624.753 296.688 656.776 300.513 679.909 C 303.678 699.047 312.429 724.095 322.319 740.783 C 332.359 757.724 349.883 778.429 365.930 789.845 C 381.562 800.965 406.310 809.987 424.986 814.376 C 445.460 819.187 473.929 819.727 494.946 818.918 C 519.260 817.982 551.127 810.723 575.204 807.211 C 575.204 807.211 593.729 824.924 602.763 831.095 C 621.286 843.746 648.313 857.458 669.517 864.777 C 690.770 872.113 720.594 877.678 743.006 879.475 C 777.475 882.239 824.228 880.725 858.140 873.964 C 892.348 867.145 967.509 834.541 967.520 834.537 C 967.520 834.537 967.520 834.537 967.520 834.537 C 979.082 842.648 993.660 854.815 1006.061 861.574 C 1027.222 873.107 1057.248 886.010 1080.844 890.912 C 1105.358 896.004 1139.550 897.862 1164.254 893.787 C 1192.714 889.093 1229.852 875.058 1253.994 859.272 C 1276.910 844.288 1318.304 794.523 1318.310 794.517 C 1318.310 794.517 1318.310 794.517 1318.310 794.517 C 1336.749 798.975 1360.909 807.373 1379.773 809.377 C 1404.369 811.989 1438.183 812.688 1462.175 806.675 C 1482.042 801.696 1507.499 789.566 1523.639 776.956 C 1544.635 760.550 1567.593 731.801 1579.698 708.064 C 1593.555 680.893 1603.619 640.120 1605.271 609.665 C 1606.426 588.363 1602.917 559.322 1595.909 539.172 C 1587.141 513.962 1566.615 483.778 1549.648 463.173 C 1534.113 444.307 1509.565 422.224 1489.619 408.101 C 1470.175 394.334 1419.575 370.694 1419.568 370.690 C 1419.568 370.690 1419.568 370.690 1419.568 370.690 C 1417.109 357.953 1414.978 340.693 1411.374 328.231 C 1406.496 311.369 1398.025 289.345 1389.771 273.852 C 1376.420 248.792 1355.399 216.533 1335.394 196.382 C 1320.403 181.282 1296.545 165.160 1278.036 154.667 C 1255.469 141.874 1223.534 127.283 1198.330 121.146 C 1174.150 115.259 1140.458 112.518 1115.646 114.442 C 1095.973 115.968 1070.091 122.501 1051.583 129.340 C 1029.080 137.656 1000.318 152.612 980.817 166.585 C 960.515 181.132 936.314 204.629 920.480 223.943 C 903.592 244.543 873.238 299.112 873.233 299.120 C 873.233 299.120 873.233 299.120 873.233 299.120 C 863.174 296.334 849.864 292.215 839.701 289.834 C 825.132 286.420 805.610 281.736 790.694 280.548 C 769.390 278.851 740.588 279.639 719.503 283.127 C 699.745 286.395 673.452 293.268 655.535 302.215 C 636.040 311.950 612.217 329.719 597.241 345.548 C 581.575 362.104 565.128 388.362 555.455 409.001 C 547.804 425.325 537.650 466.391 537.648 466.397 "/>
<path fill="#533a1d" fill-rule="evenodd" stroke="#000000" stroke-width="11" stroke-opacity="0.000000" stroke-linecap="round" stroke-linejoin="round" d="M 1240.311 390.912 C 1192.523 390.912 1153.971 429.464 1153.971 477.252 C 1153.971 525.041 1192.523 563.592 1240.311 563.592 C 1288.100 563.592 1326.651 525.041 1326.651 477.252 C 1326.651 429.464 1288.100 390.912 1240.311 390.912 Z"/>
<path fill="#ffffff" fill-rule="evenodd" stroke="#000000" stroke-width="11" stroke-opacity="0.000000" stroke-linecap="round" stroke-linejoin="round" d="M 1260.376 418.881 C 1247.250 418.881 1236.663 429.469 1236.663 442.595 C 1236.663 455.719 1247.251 466.307 1260.376 466.307 C 1273.501 466.307 1284.089 455.720 1284.089 442.595 C 1284.090 429.469 1273.501 418.881 1260.376 418.881 Z"/>
<path fill="#ffffff" fill-rule="evenodd" stroke="#000000" stroke-width="11" stroke-opacity="0.000000" stroke-linecap="round" stroke-linejoin="round" d="M 1209.909 477.252 C 1201.159 477.252 1194.101 484.311 1194.101 493.061 C 1194.101 501.811 1201.159 508.869 1209.909 508.869 C 1218.659 508.869 1225.718 501.811 1225.718 493.061 C 1225.718 484.311 1218.659 477.252 1209.909 477.252 Z"/>
<path fill="#533a1d" fill-rule="evenodd" stroke="#000000" stroke-width="11" stroke-opacity="0.000000" stroke-linecap="round" stroke-linejoin="round" d="M 934.999 393.261 C 887.210 393.261 848.659 431.813 848.659 479.601 C 848.659 527.390 887.210 565.941 934.999 565.941 C 982.788 565.941 1021.339 527.390 1021.339 479.601 C 1021.339 431.813 982.788 393.261 934.999 393.261 Z"/>
<path fill="#ffffff" fill-rule="evenodd" stroke="#000000" stroke-width="11" stroke-opacity="0.000000" stroke-linecap="round" stroke-linejoin="round" d="M 955.064 421.230 C 941.938 421.230 931.351 431.818 931.351 444.944 C 931.351 458.068 941.939 468.656 955.064 468.656 C 968.189 468.656 978.777 458.069 978.777 444.944 C 978.778 431.818 968.189 421.230 955.064 421.230 Z"/>
<path fill="#ffffff" fill-rule="evenodd" stroke="#000000" stroke-width="11" stroke-opacity="0.000000" stroke-linecap="round" stroke-linejoin="round" d="M 904.597 479.601 C 895.847 479.601 888.789 486.660 888.789 495.410 C 888.789 504.160 895.847 511.218 904.597 511.218 C 913.347 511.218 920.406 504.160 920.406 495.410 C 920.406 486.660 913.347 479.601 904.597 479.601 Z"/>
<path fill="#fbd9d7" fill-rule="evenodd" stroke="#000000" stroke-width="11" stroke-opacity="0.000000" stroke-linecap="round" stroke-linejoin="round" d="M 1303.770 584.903 C 1256.878 584.903 1240.063 601.833 1240.063 614.715 C 1240.063 627.597 1256.878 644.527 1303.770 644.526 C 1350.662 644.526 1367.477 627.596 1367.477 614.715 C 1367.477 601.833 1350.662 584.903 1303.770 584.903 Z"/>
<path fill="#fbd9d7" fill-rule="evenodd" stroke="#000000" stroke-width="11" stroke-opacity="0.000000" stroke-linecap="round" stroke-linejoin="round" d="M 865.989 577.552 C 819.097 577.551 802.281 594.481 802.281 607.363 C 802.281 620.245 819.097 637.175 865.989 637.175 C 912.881 637.175 929.696 620.245 929.696 607.363 C 929.696 594.482 912.881 577.552 865.989 577.552 Z"/>
<path fill="none" stroke="#000000" stroke-width="11" stroke-linecap="round" stroke-linejoin="round" d="M 1180.815 682.967 C 1180.813 682.969 1167.231 695.502 1160.770 700.050 C 1151.558 706.535 1138.620 714.556 1128.075 718.518 C 1114.080 723.776 1094.141 728.317 1079.192 728.202 C 1067.976 728.116 1053.103 724.582 1042.546 720.792 C 1032.796 717.292 1020.458 710.654 1012.039 704.619 C 1005.959 700.260 993.759 687.661 993.757 687.659 "/>
</g>
</svg>
