<?xml version="1.0" encoding="UTF-8"?>
<svg viewBox="0 0 744.09447 1052.362179" xmlns="http://www.w3.org/2000/svg">
 <path d="m220.76 670.91c-28.634-28.624-46.434-68.486-46.434-112.62 0-87.016 69.094-157.65 154.24-157.65s154.24 70.635 154.24 157.65c0 43.298-17.111 82.499-44.794 111" fill="none" stroke="#000" stroke-width="2.5"/>
 <path d="m197.22 695.71c-35.526-35.13-57.69-84.241-57.69-138.71 0-106.64 84.69-193.19 189.04-193.19s189.04 86.547 189.04 193.19c0 52.934-20.909 100.83-54.69 135.74" fill="none" stroke="#000" stroke-width="2.5"/>
 <path d="m201.17 704.56s12.164-17.093 25.849-26.416 27.37-23.309 38.014-37.294 19.767-31.078 19.767-31.078l7.6028-4.6617s10.644-17.093 13.685-21.755 16.222-16.967 20.89-19.054l9.5212-4.2551 15.206 26.416s10.644 7.7696 15.206 13.985 10.644 18.647 15.206 24.863 25.849 27.97 31.932 32.632 42.576 43.509 42.576 43.509" fill="none" stroke="#000" stroke-width="2.5"/>
 <path d="m317.17 593.36 6.0822-12.431 12.164-10.877" fill="none" stroke="#000" stroke-width="2.5"/>
 <path d="m307.28 605.91-10.644 6.2156-13.685 21.755" fill="none" stroke="#000" stroke-width="2.5"/>
 <path d="m194.08 699.68c-36.375-35.97-59.07-86.255-59.07-142.03 0-109.19 86.715-197.81 193.56-197.81s193.56 88.617 193.56 197.81c0 54.2-21.409 103.25-55.998 138.99" fill="none" stroke="#000" stroke-width="1.875"/>
 <path d="m305.55639,406.3881-68.64735,209.46461 .49812.15479 68.24263-209.6194h-.0934zm58.96512,2.41476-40.90822,70.30655c.04842.02876.07476.09759.12453.12383l40.78369-70.43038zm53.33011,25.38589-14.88137,16.40796c.01842.00857.04387-.00874.06226,0l14.81911-16.40796zm-27.20988,29.9987-25.34192,27.92449c.05439.0147.10159.04673.15566.06192l25.2174-27.89353c-.01261-.02952-.01834-.06338-.03114-.09288zm-181.31617,1.48601c-.06151.08381-.12542.1637-.18679.24766l15.56629,148.72421 .52925-.06192-15.90875-148.90995zm247.90877,12.56911-7.16049,5.1391c.00336.01356.02779.01735.03113.03096l7.12936-5.17006zm-138.88246,9.87573-75.74557,130.14916c.14638.08268.29103.16261.43585.24767l75.52765-130.36587-.21793-.03096zm-132.68707,25.60261c-.05271.18341-.07247.37357-.12453.55725l33.12507,101.72934c.16635-.05551.36159-.10215.52925-.15479l-33.52979-102.1318zm60.31921-82.98028-15.1147,183.84278 .52926.06192 14.89676-183.78087c-.1153-.05712-.19405-.06434-.31132-.12383zm230.83272,102.9175 .03113.03096c-.00171-.01169-.02941-.01927-.03113-.03096zm-161.61147,13.56653-67.58662,74.60302c.1392.12249.29899.21553.43586.34054l67.46209-74.75781c-.10386-.05219-.20813-.12986-.31133-.18575zm36.04709,7.28198-11.73032,8.56198 .15566.27862 11.82372-8.71677c-.07452-.051-.17968-.06724-.24906-.12383zm73.59297,1.91942-69.69473,30.94491c.09747.0746.17539.136.28019.21671l69.81926-31.16162c-.13215.0187-.27225-.01722-.40472,0zm-245.03345,3.91822c.00751.29281.02198.57444.03114.86683l33.18733,57.30402c.15264-.08983.31262-.16048.46699-.24767l-33.68546-57.92318zm121.26142,30.46307-49.25175,35.54026c.10616.14224.23883.25828.34246.40246l48.31777-35.01396c.26824-.42543.32278-.50303.59152-.92876zm173.34623.86684-98.65916,20.77309c.0539.09378.10181.15398.15566.24767l98.47237-20.92789c.00752-.03197.0236-.06089.03113-.09287zm-289.5019,4.14843c.08793.33104.15899.66051.24906.99066l22.88245,25.35494c.13687-.125.29665-.21806.43585-.34054l-23.56736-26.00506zm7.56521,21.98047c.13829.31612.2955.61376.43586.92875l11.02094,8.01823c.1083-.15069.23139-.28485.34245-.43342l-11.79925-8.51356zm84.96083,3.8698-22.47773,9.90669c.08068.17511.20289.31841.2802.49533l21.73054-9.65902c.15261-.24532.31765-.50137.46699-.743zm-78.73431,8.88506c.1545.27916.34194.52684.49812.80492l1.65003.71204c.07363-.16846.20351-.29756.28019-.46437l-2.42834-1.05259zm69.83039,4.45801-11.55019,2.41476c.03758.16891.08989.32533.12453.49533l11.02094-2.32188c.14129-.19594.26426-.39182.40472-.58821zm-10.86527,8.54452c.00092.09579.03113.18262.03113.27863 0,.08591-.0304.16193-.03113.24767h3.9227l.43586-.5263h-4.35856zm143.58348.1548c.08106.08087.13701.16701.21792.24766l49.65648-.06191 .09339-.12384-49.96779-.06191z" fill="none" stroke="#000" stroke-width=".93136"/>
 <path d="m241.72 666.27c5.2471-4.7752 10.347-9.8973 15.062-15.312 0.35932-1.843 0.5625-3.7395 0.5625-5.6875 0-16.324-13.238-29.594-29.562-29.594-12.61 0-23.312 7.94-27.562 19.062" fill="none" stroke="#000" stroke-width="1.875"/>
 <path d="m224.36 666.4c-27.679-27.67-44.885-66.201-44.885-108.87 0-84.113 66.789-152.39 149.1-152.39s149.1 68.279 149.1 152.39c0 41.853-16.54 79.747-43.3 107.3" fill="none" stroke="#000" stroke-width="1.875"/>
 <path d="m476.69 549.69c-13.462 1.515-25.83 4.3642-39.317 4.0992-10.044 4.8575-22.044 2.1352-32.75 1.4515-12.279 3.1209-24.844-2.1318-37.142 0.72457-5.0334-2.7369-23.327 3.4647-20.943-6.9664 2.763-5.7294 7.5444-9.9936 12.591-6.9858 0.30887-4.1595 3.1628-6.6142 7.3907-5.3567 2.354-5.117-1.678-17.398-6.9851-8.2734-10.861 2.9361 4.0772-11.849-8.4198-9.8716-7.4779 7.3852-16.831-4.5812-24.164 2.5458-7.9293-5.4923-10.121-2.5021-10.168 0.93825-11.389 1.4944-9.8555 10.983-6.0772 11.608m36.074 15.206c-10.572 3.1467-15.032-1.4636-26.15-0.10341-6.4966 1.5356-13.658-8.6985-14.223-12.184 4.0843-4.1377 9.9783-4.5125 13.172 0.09753m11.141-1.0619c-8.7174-5.6598-20.994 8.8331-9.2192 7.342 10.226 4.222 14.655 2.7684 23.747 0.15732 12.516-4.3014 0.27577-19.04-6.8559-13.386-11.237-1.1362-7.5866 3.9266-7.6719 5.8865zm36.312-6.2523c3.5822-3.4173 6.997-3.8077 9.8372 0.69514 10.82-1.9019 7.6975 10.668 6.7179 15.412-1.3536 0.67848-2.0103-0.52323-1.6961-1.3511m-8.7102-31.357c10.567-8.3434-14.053-0.55553-4.4633-8.7693-8.7105-1.964-4.8733 19.282-14.547 11.496 7.4852-6.8413-1.6368-17.201 4.4937-23.631 5.9759 0.69671 12.846 1.1844 13.279 9.6044 10.348 1.9838-0.94416-10.453 5.3025-17.153 7.0302-7.5406 19.564-9.7488 14.373 4.0348 0.10123 3.8127 5.4788 3.5788 7.6626 5.8068m-2.8734 7.5788c0.091-6.6576 12.88-11.522 3.2145-16.93-9.3153-5.2127-5.6389-14.04-10.053-21.688-3.9847-6.9047 9.7302-19.138 16.71-8.9975 4.8731 3.9968-3.5426 19.959 7.6849 12.211 7.6927 1.0745 14.407 2.8438 19.026 8.113m-27.873-22.066c8.0607-4.3121 21.773-9.1999 26.421 2.3227-0.1178 9.04 11.203 6.782 13.01 12.161-1.0973 8.5666 4.3615 10.482 5.7682 18.301l-0.77672 1.4757-0.29034 0.58067m-8.1295 29.615c-2.7368-12.927-16.709-12.446-23.134-4.4748 0.41724 5.3684-0.13419 12.133 5.0886 15.273-4.7362-0.08528-9.1234-0.40162-8.9242 7.3517-2.5938-5.8911-19.196-10.1-28.775-5.3752-1.5393 0.60575-3.1285-0.05319-4.6454 0.61062m-1.3682-9.1538c4.0282-10.791 9.8882-8.6899 12.982-4.2318m-54.71 2.6104c-3.188-8.7654 5.3546-12.092 6.595-12.094 0.95591-0.333 2.1306-0.55657 2.6176-1.56 0.72695-1.0479 0.99051-2.5211 2.2534-3.1003 0.91533-0.51606 1.8168-1.1262 2.924-1.0059 1.3134-0.23981 2.6905-0.56349 3.9936-0.08454 0.30442 0.20644 1.1616-0.12866 0.85045 0.49648" fill="none" stroke="#000" stroke-width="1.875"/>
 <path d="m300.91 483.21c-0.09798-5.0535-6.8186-3.9206-8.5507-0.49293-2.9085 3.8564 2.1382 5.802 4.938 7.0021 3.4056 3.3191 8.418 3.2543 11.866 0.01989 3.873-2.525 8.4841-0.26785 12.715-0.38034 4.8455 0.53995 10.52-2.726 10.417-8.0724-0.85831-5.1374-5.9246-1.1706-8.8626-1.1319-3.3571-1.307-3.6666-8.3415-8.594-5.6758-3.9938 3.0094-7.7396 6.2454-12.655 7.7301l-0.66028 0.46302-0.61281 0.53819z" fill="none" stroke="#000" stroke-width="1.25"/>
</svg>
