<?xml version="1.0" encoding="UTF-8"?>
<svg enable-background="new 0 0 500 500" version="1.1" viewBox="0 0 500 500" xmlns="http://www.w3.org/2000/svg">
 <path d="m430.98 339.51c19.217-5.092 33.035-17.009 36.019-37.881 3.381-23.665-8.001-31.462-25.196-43.601-9.073-6.406-18.167-5.184-28.424-6.665 7.477-13.881-2.017-39.413-8.86-52.054-9.79-18.078-24.202-28.999-42.898-35.416-6.637-2.277-15.528-2.143-22.72-1.416-9.56 0.966-20.739 10.777-29.054 10.884-11.198 0.145-12.25-21.443-14.253-29.086-4.113-15.687-11.005-20.415-25.274-27.137-11.614-5.474-26.977-3.677-39.736-3.309-33.864 0.977-80.412 27.23-73.735 66.858-16.697 9.519-39.332 9.753-56.645 21.705-9.273 6.401-15.557 16.406-19.477 27.03-2.899 7.855-1.239 26.435-5.532 32.131-4.194 5.566-21.26 7.326-27.747 11.501-8.939 5.752-15.868 13.715-18.876 24.316-4.153 14.63 0.974 28.66 11.172 39.119 10.55 10.819 18.22 8.892 31.817 8.188 39.53-2.045 79.642-0.058 119.23-0.156 57.189-0.143 114.38-0.442 171.56-1.12 17.725-0.209 45.917 2.124 68.626-3.891z" fill="#B4E0DD"/>
 <path d="m431.65 341.92c11.271-3.101 22.178-8.728 29.229-18.343 7.212-9.833 10.589-23.214 8.833-35.316-1.591-10.962-8.359-18.763-16.898-25.315-5.473-4.2-11.009-8.584-17.53-10.989-6.889-2.542-14.714-2.143-21.9-3.094 0.72 1.254 1.439 2.508 2.159 3.762 4.753-9.525 3.19-20.603 0.66-30.543-2.725-10.704-7.352-21.251-13.408-30.483-12.773-19.47-35.614-32.94-59.071-31.988-5.443 0.221-10.156 1.322-15.132 3.526-5.724 2.535-10.998 6.192-17.174 7.579-9.303 2.088-11.081-14.617-12.131-20.552-1.54-8.708-3.966-17.111-10.01-23.825-6.585-7.314-17.768-12.45-27.211-14.416-7.17-1.493-14.657-1.262-21.93-0.984-6.451 0.246-12.893 0.396-19.292 1.301-12.023 1.7-23.728 6.096-34.244 12.101-20.633 11.782-35.963 32.395-32.159 57.013 0.383-0.941 0.766-1.882 1.149-2.823-22.099 12.18-50.939 10.323-67.464 32.063-6.823 8.975-10.757 18.648-11.699 29.814-0.437 5.178-0.578 10.401-1.646 15.502-1.146 5.473-5.295 6.932-10.197 8.563-4.738 1.577-9.617 2.686-14.293 4.456-4.885 1.849-9.063 5.297-12.805 8.864-8.747 8.34-13.345 20.342-12.767 32.349 0.586 12.166 7.582 23.534 16.684 31.271 7.997 6.799 17.338 6.574 27.235 5.938 30.892-1.988 61.95-0.982 92.875-0.542 32.366 0.461 64.744 0.127 97.111-0.042 31.919-0.166 63.838-0.415 95.756-0.771 25.678-0.289 52.118 2.344 77.27-4.076 3.122-0.798 1.797-5.62-1.33-4.822-26.449 6.752-54.887 3.668-81.925 3.962-33.248 0.361-66.497 0.595-99.746 0.756-32.964 0.159-65.92 0.323-98.881-0.185-16.316-0.25-32.633-0.481-48.952-0.321-14.104 0.139-28.285 1.667-42.367 1.444-11.023-0.174-18.981-8.719-24.162-17.686-6.557-11.351-5.805-25.028 0.692-36.173 5.275-9.05 13.725-14.511 23.507-17.391 6.52-1.92 16.147-3.409 19.678-10.044 3.59-6.745 2.799-16.207 3.488-23.585 1.011-10.826 6.958-21.14 14.457-28.828 16.167-16.577 42.551-15.479 62.006-26.202 1.061-0.584 1.319-1.72 1.149-2.823-3.478-22.509 11.516-40.55 29.862-51.366 19.792-11.668 43.298-14.147 65.869-12.654 11.181 0.739 23.852 6.21 31.457 14.659 6.354 7.058 7.182 17.076 8.977 25.951 1.44 7.119 3.777 15.888 11.229 18.785 3.602 1.4 8.162-0.194 11.469-1.613 5.95-2.553 11.449-6.104 17.631-8.108 11.554-3.746 24.808-0.253 35.308 4.787 9.539 4.58 17.753 11.249 24.385 19.467 6.563 8.132 10.98 18.052 14.278 27.891 3.291 9.821 6.386 22.484 1.497 32.279-0.919 1.842 0.253 3.51 2.159 3.762 5.883 0.778 11.852 0.833 17.665 2.085 6.218 1.339 11.165 5.355 16.185 9.014 7.932 5.78 15.061 12.315 17.268 22.242 2.437 10.959-0.963 23.759-7.206 32.853-6.229 9.07-16.657 14.205-26.975 17.042-3.106 0.854-1.786 5.678 1.328 4.822z"/>
 <path d="m264.43 214.34c13.438 0 24.331 15.188 24.331 33.924 0 18.737-10.893-17.547-24.331-17.547-13.44 0-24.334 36.284-24.334 17.547 0-18.736 10.893-33.924 24.334-33.924" stroke="#000" stroke-miterlimit="10"/>
 <path d="m285.4 251.99c1.792 2.948 6.029 1.134 8.473 0.681 1.142-0.453 2.282-0.906 3.423-1.586 1.791-1.134 1.465-1.134 0.978-3.854-0.329-2.267-0.163-4.534-1.956-3.627-1.141 0.68-2.28 2.72-3.258 3.627-2.283 2.493-4.89 4.307-7.66 4.759"/>
 <path d="m284.86 252.31c1.898 2.602 4.88 2.015 7.644 1.326 2.168-0.541 7.045-1.594 6.736-4.583-0.092-0.896-0.196-7.083-2.561-6.237-1.667 0.596-2.56 2.208-3.634 3.526-1.988 2.438-4.715 4.404-7.812 5.05-0.789 0.164-0.454 1.369 0.332 1.205 2.302-0.479 4.181-1.581 5.999-3.045 1.035-0.834 1.971-1.843 2.81-2.872 0.479-0.586 0.924-1.194 1.411-1.772 1.708-2.029 1.703 0.983 1.768 1.576 0.107 0.996 0.374 1.963 0.477 2.957 0.123 1.187-3.725 2.392-4.323 2.632-2.196 0.881-6.169 1.797-7.767-0.394-0.47-0.645-1.555-0.022-1.08 0.631z"/>
 <path d="m191.08 214.34c-13.44 0-24.333 15.188-24.333 33.924 0 18.737 10.893-17.547 24.333-17.547 13.439 0 24.333 36.284 24.333 17.547 1e-3 -18.736-10.893-33.924-24.333-33.924" stroke="#000" stroke-miterlimit="10"/>
 <path d="m170.11 251.99c-1.792 2.948-6.03 1.134-8.474 0.681-1.14-0.453-2.281-0.906-3.42-1.586-1.792-1.134-1.466-1.134-0.979-3.854 0.328-2.267 0.163-4.534 1.955-3.627 1.141 0.68 2.281 2.72 3.259 3.627 2.281 2.493 4.888 4.307 7.659 4.759"/>
 <path d="m169.57 251.68c-1.718 2.354-4.985 1.041-7.29 0.493-1.488-0.354-2.943-1.098-4.226-1.933-1.087-0.708-0.231-2.701-0.099-3.756 0.056-0.612 0.137-1.221 0.244-1.826 0.288-1.618 3.011 2.122 2.837 1.896 0.672 0.873 1.458 1.646 2.248 2.412 1.855 1.799 4.128 3.104 6.659 3.631 0.787 0.164 1.121-1.041 0.332-1.205-3.014-0.628-5.3-2.408-7.383-4.599-1.022-1.075-2.053-3.258-3.535-3.788-3.03-1.084-2.909 4.307-3.088 6.048-0.289 2.796 4.119 3.953 6.192 4.446 2.909 0.692 6.143 1.613 8.188-1.189 0.477-0.652-0.609-1.275-1.079-0.63z"/>
 <path d="m285.4 276.41c0 13.991-23.905 45.249-53.393 45.249-29.487 0-53.392-32.345-53.392-46.337 0-13.993 23.905 8.222 53.392 8.222 29.488 0 53.393-21.127 53.393-7.134z" fill="#E91369" stroke="#000" stroke-miterlimit="10" stroke-width="4"/>
 <path d="m224.68 297.01c0.04 1.078 13.21 0.92 14.49 0.892 0.506-2.943 1.64-14.176-1.4-13.67-2.236 0.371-8.672 1.413-12.013 0.445-2.609-0.756-1.173 9.748-1.077 12.333z" fill="#fff"/>
 <path d="m222.88 297.5c0.97 2.477 4.975 2.096 7.125 2.189 3.052 0.133 6.119 0.139 9.173 0.079 0.768-0.015 1.673-0.554 1.808-1.377 0.621-3.788 1.041-7.85 0.474-11.666-0.201-1.354-0.614-3.248-1.966-3.956-1.784-0.934-4.224-0.02-6.105 0.191-1.349 0.151-2.702 0.219-4.059 0.233-1.303 0.015-2.549-0.439-3.821-0.439-1.536 0-2.388 1.252-2.81 2.566-1.156 3.604-0.067 7.993 0.113 11.681 0.118 2.407 3.868 2.418 3.75 0-0.135-2.768-0.483-5.513-0.478-8.289 1e-3 -0.668 0.029-1.344 0.139-2.003 0.194-1.162-1.627-0.396-0.338-0.082 1.9 0.46 3.961 0.344 5.891 0.227 1.857-0.113 3.709-0.386 5.547-0.668 0.898-0.139 9e-3 -0.586 0.247 0.145 0.207 0.635 0.255 1.313 0.308 1.972 0.238 2.99-0.025 6.137-0.51 9.093 0.603-0.459 1.206-0.918 1.808-1.377-2.076 0.041-4.152 0.03-6.228 0-1.534-0.021-3.067-0.072-4.599-0.164-0.587-0.034-1.182-0.072-1.765-0.151-1.297-0.175-0.629-0.577-0.09 0.801-0.868-2.227-4.496-1.259-3.614 0.995z"/>
</svg>
