<?xml version='1.0' encoding='utf-8'?>
<svg xmlns="http://www.w3.org/2000/svg" width="1000" height="1000" viewBox="0 0 264.58332 264.58334" version="1.1" id="svg5"> <defs id="defs2"/> <metadata id="metadata856"> </metadata> <rect style="fill:#f7f7f7;fill-opacity:1;stroke:none;stroke-width:10.5833;stroke-linecap:square;stroke-miterlimit:4;stroke-dasharray:none;stroke-opacity:1;paint-order:stroke markers fill" id="rect3552" width="264.58334" height="264.58334" x="1.7011718e-05" y="1.1368684e-13"/> <path style="color:#000000;fill:#ff8800;stroke-width:3.96875;stroke-linecap:square;-inkscape-stroke:none;paint-order:fill markers stroke;fill-opacity:1" d="M 161.25425,137.261 A 32.084514,32.084514 0 0 1 129.16974,169.34552 32.084514,32.084514 0 0 1 97.085232,137.261 32.084514,32.084514 0 0 1 129.16974,105.17649 32.084514,32.084514 0 0 1 161.25425,137.261 Z" id="path3554"/> <path style="color:#000000;fill:#ff8800;stroke-width:5.29167;stroke-linecap:round;-inkscape-stroke:none;paint-order:fill markers stroke;fill-opacity:1" d="m 129.16974,74.237108 c -2.32769,0 -4.20159,2.248687 -4.20159,5.041901 V 90.20316 c 0,2.793214 1.8739,5.041911 4.20159,5.041911 2.32768,0 4.20158,-2.248697 4.20158,-5.041911 V 79.279009 c 0,-2.793214 -1.8739,-5.041901 -4.20158,-5.041901 z" id="path3556"/> <path id="path3558" style="color:#000000;fill:#ff8800;stroke-width:5.29167;stroke-linecap:round;-inkscape-stroke:none;paint-order:fill markers stroke;fill-opacity:1" d="m 170.00801,91.725699 c -0.99329,0.213105 -1.98377,0.738583 -2.8098,1.564645 l -7.72426,7.724796 c -1.97512,1.97511 -2.2406,4.89009 -0.5947,6.53599 1.64593,1.64594 4.56144,1.38098 6.53656,-0.59413 l 4.5922,-4.5922 z"/> <path style="color:#000000;fill:#ff8800;stroke-width:5.29167;stroke-linecap:round;-inkscape-stroke:none;paint-order:fill markers stroke;fill-opacity:1" d="m 173.73436,181.82561 c 1.64592,-1.64591 1.3809,-4.56103 -0.5942,-6.53614 l -7.72453,-7.72453 c -1.97512,-1.97512 -4.89023,-2.24012 -6.53616,-0.5942 -1.64591,1.64592 -1.3809,4.56103 0.59421,6.53614 l 7.72453,7.72453 c 1.97511,1.97511 4.89022,2.24013 6.53615,0.5942 z" id="path3560"/> <path style="color:#000000;fill:#ff8800;stroke-width:5.29167;stroke-linecap:round;-inkscape-stroke:none;paint-order:fill markers stroke;fill-opacity:1" d="m 129.16973,200.28488 c 2.32767,0 4.20158,-2.24869 4.20158,-5.04191 v -10.92414 c 0,-2.79321 -1.87391,-5.04191 -4.20158,-5.04191 -2.32769,0 -4.20159,2.2487 -4.20159,5.04191 v 10.92414 c 0,2.79322 1.8739,5.04191 4.20159,5.04191 z" id="path3562"/> <path style="color:#000000;fill:#ff8800;stroke-width:5.29167;stroke-linecap:round;-inkscape-stroke:none;paint-order:fill markers stroke;fill-opacity:1" d="m 84.605113,181.8256 c 1.645923,1.64593 4.561032,1.38092 6.536148,-0.5942 l 7.724526,-7.72452 c 1.975113,-1.97512 2.240113,-4.89023 0.594199,-6.53615 -1.645924,-1.64592 -4.561032,-1.38091 -6.536149,0.5942 l -7.724525,7.72454 c -1.975116,1.9751 -2.240122,4.89021 -0.594199,6.53613 z" id="path3564"/> <path style="color:#000000;fill:#ff8800;stroke-width:5.29167;stroke-linecap:round;-inkscape-stroke:none;paint-order:fill markers stroke;fill-opacity:1" d="m 66.145853,137.26098 c 0,2.32769 2.248677,4.2016 5.041911,4.2016 l 10.924141,-1e-5 c 2.793213,1e-5 5.041911,-1.87391 5.041911,-4.20159 0,-2.32768 -2.248698,-4.20159 -5.041911,-4.20159 l -10.924141,1e-5 c -2.793234,-1e-5 -5.041911,1.87391 -5.041911,4.20158 z" id="path3566"/> <path style="color:#000000;fill:#ff8800;stroke-width:5.29167;stroke-linecap:round;-inkscape-stroke:none;paint-order:fill markers stroke;fill-opacity:1" d="m 84.605123,92.696379 c -1.645902,1.645912 -1.380906,4.561021 0.5942,6.536137 l 7.724536,7.724524 c 1.975095,1.97511 4.890225,2.24012 6.536148,0.5942 1.645913,-1.64591 1.380893,-4.56103 -0.59421,-6.53614 l -7.724525,-7.724522 c -1.975117,-1.975127 -4.890225,-2.240123 -6.536149,-0.594199 z" id="path3568"/> <g id="g3600" transform="matrix(1.058669,0,0,1.058669,8.5924351,556.79225)" style="stroke-width:0.944582"> <path style="color:#000000;fill:#666666;stroke-width:0.944576;stroke-linecap:round;stroke-linejoin:round;-inkscape-stroke:none;paint-order:fill markers stroke" d="m 161.41634,-458.45627 c -3.15971,0 -5.8263,2.22216 -5.8263,5.09936 v 40.89594 c -4.88709,2.44968 -8.01275,7.43598 -8.01573,12.93012 -3e-5,7.99852 6.49949,14.49895 14.498,14.49908 7.99863,3e-5 14.49804,-6.50045 14.49801,-14.49908 -4.2e-4,-5.49674 -3.12627,-10.48589 -8.01574,-12.93657 v -40.88949 c 0,-2.8772 -2.66657,-5.09936 -5.8263,-5.09936 z m 0,1.45711 h 1.31194 c 2.48958,0 4.37026,1.67721 4.37026,3.64225 v 41.31748 a 0.728449,0.728449 0 0 0 0.4237,0.66135 c 4.62832,2.12884 7.59165,6.75279 7.59204,11.84723 3e-5,7.21134 -5.83063,13.042 -13.04197,13.04197 -7.21123,-1.2e-4 -13.04092,-5.83073 -13.04089,-13.04197 0.003,-5.0917 2.96512,-9.71296 7.59097,-11.84078 a 0.728449,0.728449 0 0 0 0.42369,-0.66135 v -41.32393 c 0,-1.96504 1.8807,-3.64225 4.37026,-3.64225 z" id="path3572"/> <path style="color:#000000;fill:#d92a2a;fill-opacity:1;stroke-width:0.249919;stroke-linecap:round;stroke-linejoin:round;-inkscape-stroke:none;paint-order:fill markers stroke" d="m 161.6254,-455.1912 c -1.61408,0 -2.9135,1.29942 -2.9135,2.91351 v 42.00573 a 11.256715,11.256715 0 0 0 -7.89608,10.74157 11.256715,11.256715 0 0 0 11.25656,11.25684 11.256715,11.256715 0 0 0 11.25685,-11.25684 11.256715,11.256715 0 0 0 -7.89635,-10.74242 v -42.00488 c 0,-1.61409 -1.29943,-2.91351 -2.91351,-2.91351 z" id="path3574"/> <path style="color:#000000;fill:#ffffff;stroke-width:0.944576;stroke-linecap:round;stroke-linejoin:round;-inkscape-stroke:none;paint-order:fill markers stroke" d="m 170.18268,-399.4674 a 0.87405256,0.87405256 0 0 0 -0.8076,0.93557 c 0.0199,0.27071 0.02,0.54219 0.001,0.81297 a 0.87413994,0.87413994 0 0 0 0,0.001 c -0.14464,2.06837 -1.40105,3.88944 -3.28307,4.75954 a 0.87405256,0.87405256 0 0 0 -0.42692,1.16032 0.87405256,0.87405256 0 0 0 1.16031,0.42692 c 2.45788,-1.13633 4.10502,-3.52402 4.29392,-6.22526 0.0248,-0.3541 0.0239,-0.70953 -0.002,-1.06354 a 0.87405256,0.87405256 0 0 0 -0.93556,-0.80759 z" id="path3576"/> <path style="color:#000000;fill:#666666;stroke-width:0.944576;stroke-linecap:round;-inkscape-stroke:none" d="m 171.31288,-452.39876 a 0.72837622,0.72837622 0 0 0 -0.7291,0.72801 0.72837622,0.72837622 0 0 0 0.7291,0.72802 h 7.28341 a 0.72837622,0.72837622 0 0 0 0.72802,-0.72802 0.72837622,0.72837622 0 0 0 -0.72802,-0.72801 z" id="path3578"/> <path style="color:#000000;fill:#666666;stroke-width:0.944576;stroke-linecap:round;-inkscape-stroke:none" d="m 171.31288,-448.7576 a 0.72837622,0.72837622 0 0 0 -0.7291,0.7291 0.72837622,0.72837622 0 0 0 0.7291,0.72801 h 4.37026 a 0.72837622,0.72837622 0 0 0 0.72802,-0.72801 0.72837622,0.72837622 0 0 0 -0.72802,-0.7291 z" id="path3580"/> <path style="color:#000000;fill:#666666;stroke-width:0.944576;stroke-linecap:round;-inkscape-stroke:none" d="m 171.31288,-445.11535 a 0.72837622,0.72837622 0 0 0 -0.7291,0.72802 0.72837622,0.72837622 0 0 0 0.7291,0.72909 h 7.28341 a 0.72837622,0.72837622 0 0 0 0.72802,-0.72909 0.72837622,0.72837622 0 0 0 -0.72802,-0.72802 z" id="path3582"/> <path style="color:#000000;fill:#666666;stroke-width:0.944576;stroke-linecap:round;-inkscape-stroke:none" d="m 171.31288,-441.47311 a 0.72837622,0.72837622 0 0 0 -0.7291,0.72802 0.72837622,0.72837622 0 0 0 0.7291,0.72802 h 4.37026 a 0.72837622,0.72837622 0 0 0 0.72802,-0.72802 0.72837622,0.72837622 0 0 0 -0.72802,-0.72802 z" id="path3584"/> <path style="color:#000000;fill:#666666;stroke-width:0.944576;stroke-linecap:round;-inkscape-stroke:none" d="m 171.31288,-437.83194 a 0.72837622,0.72837622 0 0 0 -0.7291,0.7291 0.72837622,0.72837622 0 0 0 0.7291,0.72801 h 7.28341 a 0.72837622,0.72837622 0 0 0 0.72802,-0.72801 0.72837622,0.72837622 0 0 0 -0.72802,-0.7291 z" id="path3586"/> <path style="color:#000000;fill:#666666;stroke-width:0.944576;stroke-linecap:round;-inkscape-stroke:none" d="m 171.31288,-434.1897 a 0.72837622,0.72837622 0 0 0 -0.7291,0.72802 0.72837622,0.72837622 0 0 0 0.7291,0.7291 h 4.37026 a 0.72837622,0.72837622 0 0 0 0.72802,-0.7291 0.72837622,0.72837622 0 0 0 -0.72802,-0.72802 z" id="path3588"/> <path style="color:#000000;fill:#666666;stroke-width:0.944576;stroke-linecap:round;-inkscape-stroke:none" d="m 171.31288,-430.54745 a 0.72837622,0.72837622 0 0 0 -0.7291,0.72801 0.72837622,0.72837622 0 0 0 0.7291,0.72803 h 7.28341 a 0.72837622,0.72837622 0 0 0 0.72802,-0.72803 0.72837622,0.72837622 0 0 0 -0.72802,-0.72801 z" id="path3590"/> <path style="color:#000000;fill:#666666;stroke-width:0.944576;stroke-linecap:round;-inkscape-stroke:none" d="m 171.31288,-426.90628 a 0.72837622,0.72837622 0 0 0 -0.7291,0.72909 0.72837622,0.72837622 0 0 0 0.7291,0.72802 h 4.37026 a 0.72837622,0.72837622 0 0 0 0.72802,-0.72802 0.72837622,0.72837622 0 0 0 -0.72802,-0.72909 z" id="path3592"/> <path style="color:#000000;fill:#666666;stroke-width:0.944576;stroke-linecap:round;-inkscape-stroke:none" d="m 171.31288,-423.26404 a 0.72837622,0.72837622 0 0 0 -0.7291,0.72802 0.72837622,0.72837622 0 0 0 0.7291,0.72909 h 7.28341 a 0.72837622,0.72837622 0 0 0 0.72802,-0.72909 0.72837622,0.72837622 0 0 0 -0.72802,-0.72802 z" id="path3594"/> <path style="color:#000000;fill:#666666;stroke-width:0.944576;stroke-linecap:round;-inkscape-stroke:none" d="m 171.31288,-419.62179 a 0.72837622,0.72837622 0 0 0 -0.7291,0.72801 0.72837622,0.72837622 0 0 0 0.7291,0.72802 h 4.37026 a 0.72837622,0.72837622 0 0 0 0.72802,-0.72802 0.72837622,0.72837622 0 0 0 -0.72802,-0.72801 z" id="path3596"/> <path style="color:#000000;fill:#666666;stroke-width:0.944576;stroke-linecap:round;-inkscape-stroke:none" d="m 171.31288,-415.98063 a 0.72837622,0.72837622 0 0 0 -0.7291,0.7291 0.72837622,0.72837622 0 0 0 0.7291,0.72801 h 7.28341 a 0.72837622,0.72837622 0 0 0 0.72802,-0.72801 0.72837622,0.72837622 0 0 0 -0.72802,-0.7291 z" id="path3598"/> </g> </svg>