<?xml version="1.0" encoding="UTF-8"?>
<svg viewBox="0 0 640 480" xmlns="http://www.w3.org/2000/svg">
 <ellipse cx="436.28" cy="192.44" rx="190.5" ry="183.5" fill="#ff0" stroke="#ff0" stroke-width="5"/>
 <g fill="#1a1a1a">
  <path d="m361.63 374.38c10.785 5.0909-4.1684 4.1743 3.5988 8.4973-17.01-9.7597 0.36804 10.149 9.2441 8.6693 14.761 4.3823 31.371-2.5364 45.71 4.1816 3.7419-5.268 24.378-21.807 7.2607-13.157-4.5348 4.6164-32.855 0.48987-21.347-1.4493 18.819-4.8419 10.395-3.7829-3.7944-1.4751-16.416 0.046021-14.396-5.9408 1.5155-4.903 10.232-2.1745 31.583-21.742 6.6566-8.5277-13.784 5.9619-31.355 8.5279-8.0362 0.86444 33.974-9.5362-20.7-3.1779-14.891-4.2879 15.331-4.0195 31.768-4.8433 45.103-13.844-10.348 2.084-20.405 7.7222-31.158 4.8596 5.479-1.5351 34.352-6.5002 18.164-4.8601-5.7102 0.013214-33.569 3.6543-22.456 0.91205 5.7721-1.6328 35.981-8.6365 28.106-7.3543-26.465 1.5269-54.539 7.1623-79.126-5.407 15.73 9.387 8.0687 5.4542 1.4355 3.7036 10.301 7.4202-14.044 13.291 8.3216 11.673 8.0047 2.2818 11.345 12.282 24.216 11.828 19.347 4.421-21.58-0.30798-12.464 3.8439 5.4918 1.6522 28.684 14.709 17.128 12.379-7.729-2.0486-15.459-4.0971-23.188-6.1458z"/>
  <path d="m302.27 435.24c5.868-18.679 27.636-22.474 43.848-30.248 26.717 3.2638 53.861 0.33911 79.837-5.093 9.2872-6.5946 18.672-11.593 28.874-3.4394 17.07 9.7844 37.561 7.7615 56.683 9.6678 18.662-1.3136-9.9515 1.4276-16.324 2.2616-16.256-0.7464-16.518-0.83917-0.27887 2.4164 19.162 0.832 12.769 1.166-2.6063 1.3246-15.688-2.0145-18.959 2.9008-1.6618 3.5365 10.785-0.44769 21.151 3.0843 31.357 5.9442-15.828-3.8991-13.227 0.7208-13.959 0.8913-16.436-5.8969-1.1017 3.3999-18.523-2.7833 4.7612 5.6961 1.3864 2.2-3.3787 2.0389 13.942 10.4 5.5184 11.224-4.0995 0.86636 0.24414 13.804-13.861-4.3479-9.2607 7.4607-11.957 3.6267-3.5453 3.6977-11.054-7.1637-4.0239 4.9422-26.066 19.156-14.637 4.6514-0.5592-9.4578 27.922-9.8324 14.277-13.263-9.8232 3.2309-24.893 1.1594-24.735 14.475-6.0187 7.7959-22.526 12.317-13.488-2.9238-5.2573 5.7133-17.152 23.436-9.2565 5.7461 2.6586-10.644-14.478 9.8724-22.564 6.2092-15.036 2.8972 2.8821-18.469-16.596-7.4431-13.143 8.1947-11.019 11.781-3.5119-3.3786 9.7919-17.978-19.94 0.7995-7.9696-10.552-5.9409-14.322-9.5002 13.488-5.9457 12.608-7.9972-4.0212-0.63135 11.799-16.423 14.004 11.586-14.183 6.0708-11.153-5.6945-1.8333-14.886 11.611 17.185-17.87-1.9719-3.7179-16.934 11.188-7.1564 3.0619 2.798-5.1914 16.114-12.408 3.5947-5.1151-7.0063 0.85834 9.8159-9.9785 13.377-14.362-0.29459-3.3955-10.509 8.2847 15.704-19.152 7.4479-13.077-9.8846 7.6394-21.102 4.3088-9.0183 8.0742-14.945 1.5009-14.064 5.6214-10.104 7.0856-8.5364 1.6026 7.8159 15.269-7.6477 1.1082-4.848 11.399-1.0747 6.7112-3.3031 1.1386-6.3789 4.6176-15.495 11.485-4.8405 2.1038l1.0318-0.9669z"/>
  <path d="m307.69 271.24c5.2822-6.7064 23.268-19.004 3.8318-14.832 14.092-2.8779 0.26611-4.254 0.036194-5.5143 10.434-5.3364 7.8688-3.348 14.936-2.5047-7.7343-6.9753-0.66501-13.236-15.948-16.997-9.676 0.12331-22.049-2.1409-29.26 5.3118-11.902 6.5108 3.534-14.778 12.044-12.361 9.4327-5.2527 21.918 0.55202 30.168 4.5262 3.5574 10.292 10.812 17.048 21.133 21.411 7.7951 6.1131 19.721 13.415 12.831 24.018-7.2791 9.3589 26.314 13.567 12.649 17.382-7.6376 0.38303-29.539 12.822-19.649-1.6085-1.8631-7.2652-21.592-7.2121-15.255-20.138-3.5802-12.638 25.085 6.2626 10.441-9.1046 1.4509-14.71-15.469 2.3698-23.118 3.4089l-14.84 7.0031z"/>
  <path d="m250.35 179.19c12.501-6.7098 17.628-5.7065 18.361 7.454 13.486 14.366 8.1281 1.6893 3.9918-9.232-0.99857-11.001 17.23-5.1732 24.518-3.8109 13.147 1.5653 24.448 9.4926 34.008 17.774-3.9786 7.4631 7.7476 28.323 11.037 13.854 2.1975-11.132 18.537-7.3149 26.756-13.256 10.034-0.77457 16.396 11.176 23.825 13.524 12.827 5.539 17.393-13.764 26.025-0.18993 1.0303-2.1516 15.233-5.6714 18.294-0.63797-18.218-10.813 16.051 5.2437-5.6626-5.2466-10.595-6.6899-23.203-6.729-34.265-1.1162 0.20755-8.7081 27.644-4.9451 17.502-9.5669-16.746-8.1559-5.0225-4.9705 0.75897-5.4884-5.2001-1.9258-30.775-12.846-15.83-7.5164 14.441 6.9589-9.3252-12.439 12.128-5.7615 11.498 6.038 9.4282 6.4391 18.572 5.6231 7.3943-6.1002 3.4011-8.6042-8.6812-14.785-10.752-5.8356-23.968 2.5639-34.037-0.42174-3.1048-11.85-21.964-2.7931-21.951-15.274-13.564-8.0395 12.797-17.706-4.1161-22.467-10.241-6.8661-24.465-1.03-36.432-2.625-16.321-0.11547-32.693-0.5761-48.18 5.0923 12.657 4.3052 25.314 8.6103 37.971 12.916-14.985-2.6317-29.969-5.2626-44.954-7.8934-0.82684 11.293 0.4534 20.952 14.916 20.394 11.705 2.8794 22.404 8.5378 33.682 12.598-18.861-2.4915-37.685-5.2514-56.623-7.1941 4.8755 8.0371 27.523 8.3658 8.1568 14.002-6.5895 3.0835-13.179 6.1662-19.77 9.2499z"/>
  <path d="m56.557 171.06c-20.775 2.1237 1.1992 0.77118 7.8809 8.1896-3.4364 2.0862-31.217 1.429-11.473 2.8513 4.448 2.67 28.308-0.42703 12.621 3.3996-19.896 7.9022 0.46048 0.4509 4.2488 6.6966-0.27564 8.3003-15.188 15.459 2.3394 9.3858 9.78-5.1477 20.182 9.2524 2.4633 3.8817-5.831-2.8413-30.512 8.5503-18.665 6.1095 11.72-2.2937 22.959 2.5148 4.8919 1.8568 1.3336 6.8376-6.3864 3.5736-18.414 5.2833-7.7175 0.71683 19.838 1.939 6.6546 5.1234 8.8422-0.43516 30.012 3.5111 9.636 4.6749 5.2994 6.239 26.557-3.1557 18.173 4.0456 10.956 6.557 2.1592 8.5043-11.533 10.018-10.894 1.2026-21.257 3.4541-28.464 11.907-11.013 10.968-26.666 16.194-37.838 26.798 10.22-0.47397 5.8649-5.1018 18.289-3.3273 6.2586 6.8906 4.6699-2.4982 9.4944-9.7304 4.2503 7.9679 4.1339-1.8473 7.4687 2.0879 13.078-14.242-7.6634 18.14 6.7271 1.6812 8.0888-12.157 3.771 11.697 7.8754-6.5629 9.1635-1.0596 8.0569-2.6939 4.3625 10.449-14.13 11.97 0.74532-0.09845 1.4519 3.6889 1.7073-8.7406 14.732 3.0854 7.6354-7.5137 3.6369-4.5034 10.148 3.9962 8.1125-8.193 8.9462 4.348-0.33743-9.3226 11.884-6.7695-7.9347-3.9684 13.107-5.9195-0.21715-7.753 2.7976-0.63705 19.571-3.2519 27.126-7.5307-19.308 1.1308-11.435-1.6406 2.4426-5.2739 6.609-2.9681 29.252-3.9287 14.028 3.6315-4.2952 3.7417-22.443 4.9479-7.7799 6.9892-11.184 6.2891-19.535-3.254-21.697 5.6687 23.331 2.6811-10.618 3.0043-10.705 5.2314 8.1182-1.0088-11.534 8.9276-0.91417 7.3588-13.965 13.752 7.2906-0.39777 14.264-3.2328 7.4546-2.9103-25.565 17.616-7.4967 10.504 15.08-4.7308 26.567-20.959 43.465-19.738-9.407 4.6032-18.216 8.763-27.003 14.836-4.9843 7.8287 13.679-5.7159 18.153-8.125 5.7337 3.2327-20.128 15.794 1.341 10.03 7.7164-1.98 17.608 9.0549 8.9891-5.0957-3.0418-4.104 14.277-4.1112 14.584-15.502 13.155-11.388-0.050171 14.742 10.75-2.962 7.284 1.3261-7.305 16.101-9.9695 22.01-11.758 12.962 9.3862-2.3006 12.456-7.8974 4.6461-10.596 17.406-13.581 9.453-4.0627-12.074 9.1623-11.954 8.9683 2.2646 3.5144 1.6391 4.631-8.7037 15.123 7.5488 6.0723 5.1664-3.4212-1.109-9.2699 15.134-5.5479 16.964 0.46701-6.5335-8.8756-13.913-7.0789-11.794-9.8846 1.1237-8.9672 9.9164-5.7064 6.5708-17.415 8.9115 4.7229 12.822 12.178-0.081116 8.8491-3.7986 9.7765 4.3953 13.517-8.0835 6.8306 13.655 12.234 17.443 19.712 6.713 11.855 18.456 3.8382 28.732 1.6164-1.5945 14.658-6.583 5.4902 2.1338 14.537 1.613 5.8912 10.675-13.777 21.182-12.188 10.362-11.062 12.397 13.565 15.39-4.3948 11.098 10.354 10.574-7.4811 9.6867-14.907-4.3701-4.3671-15.492 3.6199-19.688-5.3137-7.2839-12.796-13.732-7.7223-9.3528-5.9368-4.3085 0.36029-9.618-2.4859-20.665-4.3119 6.1644-3.2541-10.942-12.021 2.482-7.0982-5.419-13.993-32.655-43.97-25.943-50.351 13.738-2.9242-12.628-3.246-17.607-5.2352-8.894-4.7075-22.058-1.3548-26.36-12.262-13.203 1.1431-11.162 1.07-5.2079 4.5256-13.812 6.7856-2.0563 16.998-7.6323 15.274-11.724 6.2111-17.735-1.4462-15.628 5.3652-12.321 6.7355-10.452-5.1692-21.209-8.2002-18.985-2.4649 8.2253 1.5686 8.7709-1.5501 6.4636 0.92685 22.98-0.11595 21.1-10.404-3.1761-8.0898-20.809-13.512-15.324-2.04-4.3136-5.322-27.726-4.7901-18.965-10.256-7.604-5.0692-15.53 12.162-24.669 2.7882-9.9784-6.8582-23.017-4.8436-34.239-3.4874-7.6838 1.3172-13.101-5.3294-19.689-7.9486zm38.731 42.281c6.6998 0.17172 34.702-0.81485 15.303 0.77713-20.749 1.7822-6.4354 1.2406 6.1419 0.814 6.0351 1.9551 34.04-5.8225 18.76-0.70787-14.182 4.3725 9.5025 2.2494-11.634 3.7906-17.402 1.8177 14.802-3.5575-10.091-0.91086-11.365 0.99925-22.818-0.63664-33.903 2.6863 17.706-3.8173 7.5923-3.6358 2.1814-3.6415 4.4137-0.93623 8.8274-1.8725 13.241-2.8078zm118.9 12.412c-1.9624 8.4834 15.312 23.224 10.924 21.881-7.3538 0.2767 16.023 15.019-2.8274 5.945 13.426 15.027 2.0958 1.7701 1.5467 5.0385 2.3055 5.6993 13.877 26.942 2.8895 12.628-3.3519-11.086-11.856-22.276-10.333-33.022-0.73346-4.1567-1.4669-8.3134-2.2004-12.47zm40.571 41.345c14.362 5.6193 28.601 13.668 44.442 14.084-10.615 1.7545-20.38-1.8509-30.189-5.1692 9.8301 3.6106 18.126 13.131 29.125 12.239-10.149 5.4405-18.355-7.088-29.222-6.8158-17.029-7.0899-11.312-5.5523-2.9544-2.8068-10.202-6.7846 13.227 6.6024-4.0718-4.6456-17.992-5.821 15.62 4.6325-8.0359-4.594 6.1148 1.7607 19.756 9.4821 0.90677-2.291z"/>
  <path d="m155.29 361.89c-10.278 2.0296-19.99 5.1646-26.643 10.488-19.917 10.631 11.465 7.6294-12.519 15.214 15.607 0.42441 16.271-7.468 10.441 1.6719 9.6897 2.302 15.248-18.268 13.253-3.822-11.335 5.8862 16.372 8.7033 16.817 4.9153-4.9083-5.6126 14.388-1.5687 3.3534-11.147 10.872-6.3305 27.108-2.126 12.549-15.052-3.7707-4.4075-11.875-1.2195-17.251-2.2681zm12.961 5.8882c-8.8819 2.9722-2.7139 9.881-18.7 7.1014-20.544 0.006317 19.176 7.3468 2.0986 3.8051-6.0057-0.87317-30.918 0.59619-19.733 0.15646 8.2903-0.62174 9.4906-7.8364 23.224-5.1032 4.2337-0.26651 7.0222-5.728 13.11-5.9598z"/>
  <path d="m51.156 306.15c12.556-7.578 27.314-5.7976 41.424-5.0866 17.555-11.443-13.251-2.331 6.586-9.8341 13.71-5.335 15.266-9.9734-0.24022-4.3813-13.99 4.5916 12.468-5.1074 16.281-9.388-4.7759-0.56592-28.71-0.68634-23.662-1.5877 9.6007-3.9513 20.25-7.7548 29.382-1.0428 8.3356 9.8585 21.252-5.6794 23.754 0.32617 13.113-2.3681 8.0662-4.5483 17.007 0.4408 20.136 3.7421-11.242-2.8816-8.7052 8.8629 1.0574 8.5612-18.839-3.4416-21.957 8.7658-0.16429 11.228-8.4285 11.979-18.809 15.435-9.8822 0.46194-21.887-4.3344-29.177 6.0478-16.694 12.364 3.9344-0.16107-7.0387-3.5373-12.891 14.687-0.73044-5.0583-15.167 7.6015 10.479-12.103-13.969-1.9909-9.0915-5.1423 1.3797-5.1829 29.097-9.9137 12.698-9.3929-4.4098 0.76465-8.821 1.4957-13.285 1.9127z"/>
  <path d="m176.92 72.386c2.095-12.308-15.134-12.477-2.8714-15.042-8.9989-8.6437 13.657-6.3108 7.2242-8.409 9.2424-6.6143 12.149 4.1217 23.731-0.40265 5.362-5.5087 29.969-11.123 17.046-0.93814-1.6613 12.952 2.1646-0.19079 10.506-5.486-3.8279-1.7296-14.572-9.4409-0.085114-5.7654 7.8081 11.812 13.071-24.348 11.485-6.0058-4.4692 11.269 13.581 1.2199 0.40784 16.705 12.24-3.6734 25.938-7.5304 38.84-10.972-15.918 12.124-4.8801 5.9611 4.5489 10.963 9.3516 16.258-4.9496-8.6495-13.748 1.6-13.77 11.806 9.3394 3.4443 12.462 6.1721 5.6736 7.1171 20.038 4.5409 29.002 3.3374 9.4641-10.538 13.918 6.0177 24.638-3.8976-10.722 4.4816-5.8084 18.747 4.6467 20.746-12.536-1.7058-1.3773 5.6922-16.943 2.4136-19.235-6.7627-1.1285 2.4154 7.6651 4.9306-4.9609-0.71524-28.94-5.5394-22.036 1.6024 5.196 4.5618 29.71 2.2514 23.892 4.0447-1.541 3.2057-12.006 5.0242-22.902 2.6076-15.085-0.82575 13.515 1.5141 16.944 7.1743 6.444 5.454-16.012 7.8052-22.456 9.7463-13.079-1.1182-20.458 9.2501-29.461 16.344-15.682 2.8402-9.167-16.689-12.514-19.173-4.8769 12.592-17.317 4.8995-27.633 5.5943-0.084564-0.52263 22.021-1.1084-0.15546-2.2628-17.017-1.1547-12.378 0.54954 0.40665 5.8897 11.552 4.602-16.216 9.2383-20.298 2.6101-11.97-6.8445-20.246-10.671-7.2831 2.8462 4.4422 12.937 18.616 3.8796 28.419 6.3736 20.185 5.263-2.7286 7.2242-6.5251 13.576 8.1032 13.15-2.7888 14.046-13.742 17.067-9.6044 7.711-19.068 15.273-7.1442 0.43274-8.8344-8.354-21.518 9.8267-6.9038-5.1203 1.0809-22.523-15.271 21.782-10.816-1.1026-0.061035-10.427-9.1592 12.136-14.662 14.852-20.599 12.266 11.192-6.6368-1.3763-8.9477-8.3823 12.048-2.0624-18.353-9.1258-0.41731-0.36911 10.254-4.6477-20.976-5.2553-1.6272 2.6081 2.1149-15.444-8.4145-11.884 8.9085-5.7789 4.5716 2.7194-5.8838-4.5585-1.3117 8.1221-17.227-7.7218 0.12283-8.2401-8.5418-16.77 7.0249-5.9336 0.59897-7.5907-3.7831-17.032 0.050156-2.8707 17.922-10.216 12.876-0.10638 13.636 1.2341-1.8804-9.2467-0.088348 6.8328 11.266-11.562 9.1553-4.8371-0.29794 13.965-5.3211-0.7467-10.548-3.4102-2.2427-3.8435-2.7353-19.315-1.4872-7.7734 8.3477-11.021-4.9637-19.607-1.972-7.0896-13.01 6.864-11.143-14.143 2.603-17.822 7.016 14.581-14.22 4.5704-3.7163-5.765 2.182-20.406 6.1473 11.218-9.5567-9.3177-0.62636 12.12-7.5938-4.4654-1.7083 2.6177-6.4465-0.19666-0.55147 1.8401-10.958 17.654-5.1849 13.066 4.4575 18.988-14.704 5.1092-13.82-9.9901 0.52493 14.288-8.7937 16.006-15.921 10.366-7.2508 9.9845-17.516-4.0059-17.935-19.859 3.9581 17.751-4.5372 1.3393-10.817 11.785-7.9702-20.367-18.635-3.5289-12.766 3.8613-13.55 4.6151 13.882 14.311 11.567 12.934-1.3503 24.479-8.4649 36.658-12.614 14.428-12.842-22.376-12.52-1.2974-13.111 8.0654 2.0064 8.4495 18.962 21.543 16.454 5.4835-2.8751 11.498-4.6145 13.418-10.895z"/>
  <path d="m154.12 358.89c17.001 2.8573 15.745-35.976 22.239-13.595 9.2579 6.4638 21.395-7.1126 14.756 4.7481 12.593 0.57413 18.942-1.0432 2.7095 3.8632 17.225 4.6521 6.0144 1.9627 1.1364 3.2667 13.285 4.2894 18.746 10.647 1.7328 3.2683 2.5604 6.4697-3.4908 15.189-12.162 1.3842-5.0132-9.6794-20.154-1.1946-29.564-2.9865l-0.8471 0.0508z"/>
  <path d="m166.86 389.04c10.369 2.6587 19.444 7.1959 25.939 15.478 6.8249-0.89664 26.866 11.257 20.178 10.273-6.1338-3.2178-9.5629 5.1429-16.496-6.3518 4.4966 11.278 4.9288 7.8098-4.6405 14.463 3.8138 1.463-7.9782-26.468-5.9962-12.017 7.9112 14.417-1.3347 13.867-4.5225 1.2444 5.1069-20.378-18.063 11.824-8.7641-4.4574 10.309-15.431-19.01-3.301-6.6404-16.742l0.7568-1.5191 0.1856-0.3721z"/>
  <path d="m249.76 369.57c-4.172-10.764 12.772-14.17 21.131-15.767 4.4456-1.7675-19.777-8.0845 0.64365-11.042 1.6112-3.8861 13.427 12.02 21.04 14.829 15.141 5.5944 17.435 7.4694-0.38748 5.9947-10.398 2.3586-19.563 16.763-3.871 12.932 15.318-9.7888-2.5758 15.686 16.327 9.5408 26.928-3.1415-8.9197 2.6982-4.1924 3.6325 22.638 1.6344-14.767 2.5821 2.8111 9.5863-28.124-11.18 16.47 18.633-10.934 4.3374 12.827 13.076-10.091 3.8512-13.806-2.7972-16.405-13.285 5.8643 8.5256 4.3919 10.513-9.1797-0.084106 0.4198 1.6546-9.4496-11.258-12.1-10.785 22.086-19.175-7.7052-15.333-13.855 3.4707 7.2747-15.059-12.087-2.4263 0.73856-5.777 12.627-12.149-3.9121-12.743z"/>
  <path d="m325.14 231.33c14.7 2.2816 29.409 4.4641 42.288 11.755 14.418 0.50659-10.285 10.661 11.347 10.675 12.17-0.25458 20.999 9.9507 31.374 14.825-7.2104-8.4066-31.768-26.547-3.5611-15.15 14.827 6.0627 37.761 16.134 9.8722 2.4004-28.8-8.3139-3.0158-9.3106 10.54-11.99 9.3039-4.3673 21.16 12.716 24.83 11.093-12.693-14.855 11.225 3.7484 16.6 5.147 6.1021-1.4394-15.67-18.786-26.322-22.704-11.72-5.3894-26.334-0.30191-39.26-2.0235-12.97-0.2908-23.542-10.182-36.969-10.29-12.266-7.2478-18.732 4.051-28.648 6.6048-4.0302-0.11391-8.0606-0.22873-12.092-0.34254z"/>
 </g>
 <path d="m256.38 447.16c19.124 0.40689 51.053-0.12146 17.463 1.8817 19.352-1.6018 39.323-1.9877 58.717 1.6905 36.496-5.463-32.85 8.4443 0.37143 5.5108-18.205 2.1419-36.396 4.7579-54.728 2.304 19.05 5.4805-6.5274 4.4069-13.491 1.2588-15.293-6.0037-44.21 7.6314-38.394-1.2543-11.62 1.1887-23.24 2.3781-34.86 3.5667 4.894-1.9994 32.2-9.0707 20.416-7.2972-13.729 2.1151-24.012 3.5563-4.5653-0.82462 16.581-5.003 33.365-8.3786 50.832-6.2912l-1.6889-0.5222-0.0731-0.0229z"/>
 <path d="m139.78 448.29c30.418-4.6138 61.072-0.90875 91.688-1.9153-14.599 2.7561-29.224 5.3406-44.108 6.2245 16.64-4.9719-25.343-1.3474-36.857-0.12506 3.6096-0.004913 18.134-4.2002-2.661-2.9994 1.4044-2.8384-18.517 3.6316-8.0621-1.1847z"/>
 <path d="m336.58 458.97c14.531 0.12802 59.743 5.4422 24.924-1.6141 5.5317-1.4854 21.024-2.31 30.379-3.5415 17.678 1.8233 67.915 0.38724 67.176 3.7755-5.9543 1.209-33.716 4.014-22.752 3.9848 11.73 0.35333 23.375-1.1184 35.05-1.9366-12.803 7.9373-57.893 2.1682-36.351 8.3716-33.312 7.8131-67.708-3.2378-101.45 1.3409-8.1717 0.030426-36.08-2.5532-14.142-3.3986 12.431-1.5207 24.978-1.7969 37.469-2.675-6.7685-1.4354-13.536-2.8717-20.305-4.3071z"/>
 <path d="m256.88 105.85c-3.0675 12.442-9.1934 31.248-26.136 23.554-6.5789 2.1805 6.1121 27.42 1.8869 29.547-7.7251-14.68-20.337-24.735-35.373-32.496-1.4882 13.991 41.735 29.751 35.918 55.1 0.40555 36.81 2.9964 73.518 4.5236 110.26-20.619-21.058-27.962-50.449-34.059-77.82 9.2264 0.52747 37.19 9.7105 17.097-3.5593-22.731-9.196-36.937-42.282-28.372-61.375 17.841 1.197 31.232-6.3871 5.2046-7.2147-33.049 17.554 2.7416-18.624-6.5398-18.593-13.469 20.176-14.051-1.3219-27.245-7.8504-23.728-5.0717-7.6616 5.0032 5.6767 10.825 10.995 19.939-5.3821-8.3172-16.228-5.0219-21.014-0.003609-27.123 4.2607-2.711 4.5132 22.94 3.8371 4.7907 9.9638-7.9271 1.2851-21.824-3.2094-44.226-3.314-66.266-2.2714 23.09 5.9238 47.946 0.42716 70.452 6.8467 10.838 9.6701 33.08 10.654 36.421 25.625-12.897-11.431-56.499-31.391-61.032-23.996 39.23 6.6187 71.308 31.834 74.714 71.053-17.62-9.6384-37.579-15.676-58.252-13.312-17.966-10.537-40.318-3.2578-60.247-8.315-12.845-0.43512 21.085 7.0523 29.114 5.6092 15.369 0.84274 28.59 10.326 44.669 8.3085 23.366-2.4338 15.396 9.989-2.4776 9.3216-28.757 2.016-58.214-2.0376-86.479 3.4093 33.584-3.0788 68.224 3.4576 101.14-3.4266 16.078-8.1051 22.321-0.7446 19.082 12.623 3.1922-14.729 13.774-3.3999 14.507 12.178-20.553-7.2883-42.367 1.1111-63.469-3.7722-22.259 0.58374-43.412 9.2054-61.29 21.389 24.509-4.6676 47.33-15.756 72.977-14.39 16.616-1.3724-26.019 18.567 3.9735 4.4483 16.21-10.34 37.118-2.9598 49.591 8.7401 11.073 12.758 7.9255 31.863 22.001 43.394 7.3754 14.665 11.542 29.955 12.387 46.223-13.744-3.3198-18.257-20.18-28.397-28.17-5.3286-14.463-14.974-33.537-34.398-30.055-16.099 0.95676-33.912-0.64725-49.002 3.2361-10.25 9.0972 22.484-3.1539 31.38-0.13135 1.6229 5.6352 5.8749 3.2289 23.709 0.59168 16.983 0.87018 13.963 23.208 25.168 32.01 8.5224 12.48-31.998-6.6094-2.3919 7.9759 10.437 11.582 23.802 21.284 30.479 35.455-14.625-18.111-39.878-25.302-58.343-39.729-15.628-13.66-23.993-2.2729-5.1189 7.3893 20.554 12.16 44.243 21.702 60.013 39.439-15.523-10.166-19.956 6.3648-34.428-2.0433-22.52-5.1432-22.22-0.23737-0.17981 4.2087 12.828 8.5034 21.691-6.1908 33.06 3.8927 14.899 16.852-4.8894-0.22443-15.462-1.2223-19.904-4.2268-57.347 18.707-51.207 25.778 21.358-39.206 80.668-15.306 71.346 19.383-3.1234 14.274-3.6835 32.109-1.274 39.212 10.07-5.307 61.586 6.9391 31.055-6.9333 13.191-25.23 15.82-68.321 54.89-63.626 22.201 4.5551 22.114-6.3756 0.58994-4.6504-27.826 0.21646 1.5793-4.2231 3.8977-19.4 5.0294-11.151 2.7294-31.655 21.096-27.112 7.8253 8.2609 40.191 6.7796 15.82 2.0506-24.084-3.164-11.965-15.572 4.3576-4.553-1.5739-5.7031-21.018-13.504-29.412-2.9828-13.664-20.106-16.478 16.568-18.821 27.02-7.2599 15.359-49.306 47.596-27.928 16.035 12.801-22.716 17.866-48.166 26.929-72.256 12.758 3.376-3.4279-10.794 18.845-17.358 5.7502-8.4846 38.395-1.8197 24.707-13.563-16.797 1.3644-32.998 4.1243-45.399 15.803-18.311 18.707-14.096 47.423-28.798 68.494-8.4206 13.655-12.06 31.051-24.237 41.826-11.36-26.445 9.1927-52.525 17.026-78.093 8.5667-19.907 10.476-44.081 25.299-60.528 12.199-7.3576 17.547-15.378 33.92-15.066 13.637-1.7389-30.836 4.5479-12.269-13.178-10.334 3.6178-29.01 24.015-18.179 1.5614 15.765-13.953-4.1648-28.196-9.6257-9.5474-7.0356 31.197-19.159 61.244-31.852 90.716-9.4689 11.341-4.7685 27.534-14.087 39.679 7.2499-10.747 7.2101-43.198 5.0463-62.351-4.3255-47.253 6.9331-93.777 8.0694-140.87 16.15-4.0435 9.6311-21.995 28.616-24.978 3.8985-22.997-20.606 12.428-17.922 0.33767 10.888-14.739 1.5135-18.048-13.818-14.533zm18.611 281.5c-19.45-1.1761-11.37 20.385-13.546 31.267-0.74985 9.1831-26.191 29.18-9.4138 12.005 8.4933-6.3524 7.5162-18.604 8.9218-28.221 0.057404-10.199 1.4814-15.662 14.038-15.051z"/>
 <g fill="#008000">
  <path d="m296.37 90.582c6.5988-8.4815 26.429 8.6501 19.536 6.6508-6.4868-3.9522-12.556-5.3019-19.536-6.6508z"/>
  <path d="m315.4 123.05c16.14-7.7345 7.399 6.8468 2.3101 13.654 2.0346 1.5222 11.738-13.882 17.847-16.244 0.16397 15.081 0.28317 6.2808 10.504 1.2124 7.2788 4.8344 18.106 22.618 8.7681 5.477-9.7561-13.97-0.46793-1.7082 9.7363 1.6886 12.395 2.3221 34.504 7.8581 36.181 10.6 8.9224-7.8205 16.95 5.8507 26.299 6.8415-15.475-7.8329 11.149-4.384 17.737-8.5858 6.6992-2.3036 26.745-17.391 10.827-8.7202-20.835 3.9838-44.084 10.937-63.896 0.089157 19.867-2.6708-5.9686-4.6814-15.015-4.5676-12.816-3.4772-18.384-10.067-2.8473-14.383 23.315-9.0176-26.595 2.54-20.302-1.6223 15.676-9.0911-5.9768-3.7987-14.135-3.3699 2.331-6.9151-13.656-3.8689-21.251 1.0823-8.8469 4.8822-19.946-0.16618-27.421 7.9121-17.487 4.9307 12.161 8.8044 13.091 10.705-17.568-4.1786 11.21-12.625 11.567-1.7696z"/>
  <path d="m72.759 383.4c2.6251-20.304 21.731-6.0071 31.433-16.603 1.8408 0.18045-12.883 2.9914-17.472-0.80472-13.56 4.5686 11.696-12.691-6.4334-4.9088 8.9166-8.1072 20.858-5.1136 29.631 1.4468 19.6 2.3707 3.1846-9.9811 17.476-6.1959 9.3631 6.6344 17.89-1.455 27.947-1.2785 12.381 1.192 26.13 0.19473 37.021 6.6755-13.382 8.3976-6.2441 7.536-18.32 5.161-15.703-6.8039-20.232 9.8399-35.364 5.0852-8.204-4.2503-22.801 0.78961-29.547 5.9925-5.6874 4.3236-6.9321 30.854-12.396 16.227-5.2891-6.7309-16.528-6.8384-23.976-10.797z"/>
  <path d="m117.17 412.27c7.2831-7.4342 9.5483-21.879 22.516-21.37 10.832 1.7304 19.409-4.6849 28.466-3.436 21.118 1.4512-13.478 11.597 4.6866 13.838 3.4232 1.8327-17.411 3.446-19.929 12.51 16.825-5.2018 8.6132 10.937-2.501 5.7987 0.67834-5.695-8.5414-8.7397-16.9-4.3653 2.1724-11.936-2.133-0.83093-13.567-3.1406l-1.7741 0.1064-0.9982 0.0598z"/>
  <path d="m185.59 340.97c-7.6493 16.27-13.601-7.1085-19.795 2.8698-11.786 12.427-9.4376 8.0629-2.0108-4.0947-4.6851 2.058-25.422 18.063-18.856 8.486 2.5589-10.747 18.952-10.538 19.676-21.655-7.5611-4.7209-17.513 13.856-20.211 12.152 12.644-11.585 6.4329-13.123-5.5951-3.93-11.277-0.79514-20.748 4.2968-31.403 5.5114 3.3157-6.7298 3.042-5.7874-10.352-5.7703 9.4396-5.6095 20.229-3.1966 29.543-7.4888 6.6252-7.774 21.319-0.5687 25.222-12.379 4.58-10.501 17.68-1.385 26.437-1.2992 9.7457 1.7564 22.255-1.4506 25.975 10.297 2.331 16.015-1.3422 8.88-8.5605 0.12573-8.0299-6.2695-18.736 3.6776-13.487 11.639 1.1392 1.8448 2.2784 3.6904 3.4176 5.5361z"/>
  <path d="m282.66 426.75c9.3715-13.934 26.984-18.128 39.048-29.039-9.7198 1.9114-30.126 1.6397-10.432-2.2812 15.232-2.1734 30.332-2.7166 45.188 1.7914 10.77 1.8417 28.281 7.5475 9.2429-1.0142-16.091-4.9251-32.95-5.7402-49.717-3.6772 7.9863-6.4656 8.4393-21.34 22.06-15.882 16.912 3.9536 31.263 13.977 48.575 16.261 7.3088 3.9167 24.743-3.5446 25.466 2.5541-13.344 3.9213-22.863 6.805-3.6702 1.9016 6.7239 0.45825 23.587-14.745 16.617-14.682-13.164 1.0041-22.352-0.99078-6.4714-9.1745 4.4874-3.2128-22.81 15.669-12.588 0.94763 0.061279-7.4936 24.527-18.257 13.009-15.103-7.966 3.4258-28.81 8.3981-11.25-0.64276 10.144-3.8234 26.463-5.1678 8.9749-13.122-8.05-9.193-17.987-8.7687-27.307-1.4111-0.28647 6.9921 25.939 13.91 8.8349 13.954-8.7157-1.6322-24.918 7.6582-16.225-5.3444 4.1405-2.7391-12.906 9.6733-19.824 5.129-14.206 11.014-8.9552-3.4215 0.42044-9.5357 9.3487-10.887 26.09-6.8243 36.959-15.765 16.653-4.939 11.13-4.669-3.3734-2.1283-12.096 3.79-22.782 10.856-35.711 12.423 14.106-10.594 0.085907-12.176-10.078-6.3664-6.9574-4.6103 23.379-12.15 7.2906-13.26 20.99-3.9758-9.6861-9.3328 8.7908-11.12 17.295 0.87097 34.954 10.131 52.8 5.1265-13.125 11.991-7.1317 9.9106 5.1664 2.5877 11.398-6.7048 28.285-9.4695 39.81-1.6004-15.252-3.2783-2.1395 7.8934-12.642 3.7872 17.277 11.714-22.505-8.3193-4.8744 2.4622 12.291 6.8417-6.9941 4.5807-4.0505 8.7635-12.028 3.5162 13.363 7.2851 18.448 8.0703 19.776-6.0813-16.326 1.2847-7.2737-9.9358 4.537-8.5137 16.607 7.8179 26.009 2.0284 16.007 3.378 7.0016 7.2881 1.086 6.7349 5.9264 2.7654 29.968 13.3 11.405 8.2209-19.68-4.4566 6.6935 2.8899 8.2327 11.158-0.53192 2.1746-24.312-13.814-6.8214 0.30493 15.97 13.088-2.489 1.0151-10.254-3.2425 1.8592 3.0202 22.731 22.968 7.89 10.331-7.0242-8.5144-17.415-9.934-27.662-12.747 9.9999 5.2264 20.492 9.7497 28.98 17.136-20.833-5.8667 3.5652 10.565-14.537 0.32904-10.358-3.0749-17.563-14.695-29.205-11.977 4.4766 2.9362 30.45 15.686 15.177 9.6061-10.212-7.9058-25.256-2.0926-7.6354 4.0294 19.942 9.2523-21.401-6.8461-4.2569 3.8078 5.0104 4.7334 25.143 17.801 7.1168 15.537-7.0237-1.3225-14.411-22.696-14.382-5.1223-18.351 3.3857 5.5294 9.365 12.002 12.934 19.737 5.3992-0.50586 7.2222-3.644 10.62 10.078 2.8657-7.6946 15.268-14.669 13.19-16.14-10.691 3.1855 7.9133 12.113 2.4448 7.9126-7.3015 14.747 11.025 26.646 6.437 19.503 2.0994 1.033 4.3292-8.3518 6.0628-18.73 2.2408-37.434 5.7634-56.398 5.0262 5.9011-11.779 9.8656-20.857-2.8727-6.6296-5.261 7.5518-27.352 5.8163-16.013-5.5878 29.65 10.048-12.262-17.832-8.712 8.3474-15.094-1.157-12.734-5.9347-6.8021-9.4045-9.5385-2.6984-24.265 8.8913-10.718-4.2756 19.948-4.9022 1.8945-8.2004-2.1011-3.0822 11.917-11.447-1.1816-13.042-11.082-7.296-11.724-1.4392-18.901 17.031-21.875 0.23471-13.492 0.80957-8.636-6.1411 3.9122-10.242 3.0216-1.9602-18.919 3.4689-24.358 8.0602-8.4136 8.2567-20.952 8.6217-31.896 12.039l1.7626 0.2243 0.6999 0.0884z"/>
  <path d="m262.46 221.28c7.7553 5.637 9.6295 19.563 21.544 11.088 8.8509-4.4786 20.346-1.2258 29.916-3.3834 12.098 2.1194 9.9965 17.696 21.614 21.125 7.6519 6.3833 19.665-3.859 28.411 4.585 9.2729 8.5938 24.771 2.8372 9.0935-4.8651-5.2532-6.0267-30.679-5.8636-18.788-13.797 7.6338-0.86946 29.051 5.16 15.593-5.4277-9.2586-6.6889-19.785 4.5115-30.452 0.75969-20.309 0.33404 4.9016-2.4875 12.424-3.755 10.762-3.3282 22.167-0.77528 30.603 6.2746 7.986-6.0108 28.002-2.453 12.101 5.7192 13.172 5.2586 26.249-0.19884 39.35-2.8187 11.338 8.3115 24.861 13.411 37.886 18.905-15.082-11.694-4.7983-7.5095 7.1691-2.2716-9.5897-5.2783-19.077-10.668-25.244-19.662 15.427-11.101 6.9624-8.0767-5.8001-2.5106-10.095 1.2339-26.247-6.4636-10.935-14.468-3.9245-6.0453-15.44-12.865-24.094-16.163-5.1308-3.2798-29.485 5.3572-20.564-2.7422 13.676-3.6796 17.767-6.0557 0.95413-6.0633-10.256 5.2018-21.101 3.3746-30.609-0.72191-9.3524 2.0434-13.315 14.823-26.092 13.526-20.112 1.322 5.856-9.9663-2.3534-15.415-14.097 0.13493-20.37 0.030563-10.502-5.8734-2.5628-2.3756 19.218-1.1291 26.336-1.9302 16.441 8.3164 8.9435-2.5156-2.6122-4.5855-11.781-0.1752-21.008 1.6994-30.529-3.46-19.142 1.1054 1.138-10.132-16.421-7.4627-12.455-1.1958-14.179 11.7-25.1 15.032-18.885-0.17332-29.174 16.078-42.04 26.572-11.67 4.7825-26.414-2.7315-38.404 4.0553-11.938 3.6548-23.212 8.8756-34.711 13.562 6.759-0.1253 30.067-5.8614 25.974-2.3068-7.1291 4.6152-29.172 14.33-8.9782 9.602 21.746-3.7687-2.2454 1.5309-4.0195 10.901 4.0761-2.819 17.2-8.415 26.908-5.8562-6.8522 18.188 5.9176 4.4274 14.038-1.7619 10.366-3.5368 26.825-9.8003 9.274 0.98264-5.0992 10.267 14.78 4.9362 17.312-4.8782-9.8702 9.9326-7.9437 18.8 6.3605 13.02 0.93552-13.868 21.724-7.5314 18.525-8.6822-4.7399-4.7059-4.9337-8.7718-3.1386-14.847z"/>
  <path d="m27.701 323.27c16.28-8.5768 24.374 6.8648 40.56 4.4155 10.108 0.27191 17.826-8.5583 26.226-13.021-15.874 5.9878-16.734-0.10812-2.2047-5.3937 10.262-4.3937 21.255-0.32053 31.188-0.80832 14.008-7.902 6.041-12.327-6.0564-8.5223 5.338-8.2309 16.704-12.19 25.783-10.915 9.8561-7.1446 14.609-2.1443 25.751 0.922 14.73-4.1529-10.439 13.295 11.72 10.773 4.3909-9.6351 17.093-9.4668 21.952-18.652 6.0312-9.4892 21.027-7.8989 26.877 1.1151 15.261 6.1305-9.1002 8.409-15.804 8.623-11.349-2.2718-26.521 6.2632-7.2053 6.8681 15.357-0.43646 29.855-7.615 45.345-5.1794 13.732-1.6743 49.46-12.126 40.574 9.1713-21.21-9.4277-13.087 1.6393 1.5419 1.8844 4.2908 7.3922-27.582-3.7534-8.8188 7.8362 12.683 13.278-7.303 0.85785-12.316-4.609-7.901-11.341-22.239-4.2978-31.767 1.3242-16.519 0.36389-34.541 4.0023-48.752-6.2842 0.18347 11.412-10.855-5.6372-0.84033 9.2565-15.255 6.6579-5.4437-13.413-22.208-7.3319-15.931-7.143-13.856-6.9055-8.1149 3.4821-11.843 1.4882-13.445 9.2163-24.836 11.542-8.7461 6.9523-20.418 3.927-30.89 4.8298 15.038-8.2253 4.0118-14.128-4.9695-4.0833-10.984 1.7894-19.175 10.227-28.963 14.864 6.315-5.4367 25.622-19.533 7.8631-8.9245-6.1472 5.8332-25.171 8.5865-23.13 15.942 3.3421 7.4847 22.612 12.373 5.259 11.075-8.2319-16.565-12.286 2.3614-0.50063 6.5247-3.048 2.7446-16.729 1.5285-23.492 6.8819-13.235 1.227 6.5889-13.131-12.769-3.3415-13.582 4.9473 3.6459-10.163 9.3191-11.643-7.3046-2.6929-27.183 12.634-22.304 2.2572 9.7928-5.7618 20.888-8.1111 31.409-12.009-10.201-0.20615-20.922-1.2132-28.236 5.8346-9.5941 1.3962 11.943-10.745 6.0565-10.203 9.7247-5.8116 21.247 3.9626 29.982-3.0037-14.522-4.0548-5.9189-5.1629-19.456-6.1999-12.199 2.3917-16.702 1.8742-3.9843-5.1531l0.2096-0.1447z"/>
  <path d="m9.7245 281.08c4.4389-9.926 17.228-25.127-3.9683-15.413 10.5-4.1227 19.775-9.5911 25.049-19.454 9.8853-15.531 3.9276 13.877 11.005-0.58031 1.1426-11.138 17.579 0.36639 25.082-3.0773 14.602-5.9171 30.486-15.506 46.588-8.2023-13.275 2.1345-24.572 8.6719-36.552 13.604-5.8204 9.2186-14.366 8.2334-16.874 4.1885-3.1092 20.335-16.106-7.2018-19.03 3.8182-9.5697 11.754-18.528 16.688-18.635 11.748-4.2219 4.4564-8.4438 8.9128-12.665 13.368z"/>
  <path d="m58.337 191.16c12.236 3.5867 18.233-9.9078 28.671-9.6138 18.16 1.9375 33.702 11.399 51.836 13.896-11.734 2.6491-29.301 9.2724-40.662 0.23419-0.039948 11.467-22.457 3.3775-17.943 2.3149 14.526-8.0342-7.8374 0.18628-13.451 2.1642-1.3472-1.8487 10.67-9.5211-6.8151-4.5933-19.804 1.2635-0.7952 4.0761-1.6363-4.4024z"/>
  <path d="m112.83 137.72c-13.157-0.3407-22.899 7.1653-32.713 14.389 11.32-11.104 2.4807-13.527-7.8624-5.6771-8.6029 5.6924-26.533-4.7021-7.9509-4.4232 11.4-6.7058 27.869-1.3997 35.321-14.234-2.4017-3.5992-20.218 4.4499-25.831-4.2876-8.581 0.65374-31.915 3.0092-28.341 4.1056-6.2395-5.1883 5.2031-12.441 16.113-8.3836 18.279-3.045-15.58-3.7463-4.1286-8.7281 16.994 1.9873 10.916-1.6012-1.6712-6.7271 1.0402-1.2144 19.454 3.2224 24.461 9.5428 9.2742 11.395 14.467-7.4775 24.697-8.5089 17.852-3.1188-2.5644-12.136-11.055-7.2602-20.213 5.3684-0.30391-5.9569-16.028-8.6182 1.6896-8.7599 17.278-2.564 25.164-2.2455 7.65-7.4686 17.723 6.7121 27.341 6.7344-6.226-5.9766-26.704-13.106-6.6705-11.195 19.735-0.36711-10.95-6.7973-5.3397-11.626 11.504 4.2313 25.073 1.252 8.6028-6.9986-0.62704-3.3528 15.618 8.1443 21.517 10.693 11.377 2.8297 16.592-5.4318 25.863-9.2869-18.133-2.2053 2.3636-4.1934 10.417-3.8873 15.363-1.7017 28.474 6.445 42.316 11.314-13.123-5.8937-24.981-16.821-40.515-13.126-29.113-6.8797 20.569-1.7297 0.28268-11.622 13.296 3.2675 16.685-10.101 28.482-9.2686 20.039-1.1544-6.7328 9.1036 3.2839 17.032 9.936 12.984 8.2321 11.235 13.553 0.19718 1.8059-1.3122-11.955-7.9037 3.6402-5.831-6.5084-7.0698-4.8173-14.874 3.1908-14.922 4.2169-10.511 6.7221 6.67 12.632 8.2173-12.676 13.715 6.8186-0.11538 9.9656-3.8561 11.626-3.992 18.856 6.7719 14.507 11.635-19.47 3.3499-7.5294 2.819 5.3232 2.1755 6.7718 8.3812-3.7037 16.505 7.6297 2.3397 6.9645-1.966 14.221-2.4073 5.9695-7.5649 3.4501-7.8201 30.32-6.9239 26.43-4.5392-12.998-2.7669-23.099 9.5958-4.9064 3.5356 17.679-8.9187 1.302-0.21347-1.9617 8.6518 0.87015 15.376 14.437-7.1208 16.84-4.3123-1.5493 14.741 7.5971-15.738 14.3-0.12327-13.055-0.87779-9.0287 14.933-2.1484 15.977 13.98 0.70127-10.207 3.0961 1.7364 5.4854-10.232 2.2073-18.376 4.171-28.465-0.85774-7.5507-1.0103-22.996 19.68-18.177 9.8261 8.6304-12.913-10.943-12.196-19.718-11.639-3.5475-14.103-8.3772 3.2758-15.379-11.876 2.0364 7.2558-7.8461 20.534-16.26 10.491 9.2867-4.7386-13.679-10.862-13.54 0.61717 10.704 12.394-1.1954 5.0935-11.014 12.61-18.892-2.053-8.5354-0.11821-2.4809 3.1855-12.77 3.6791-26.943-4.9172-37.912 4.1324-17.105 8.8231 1.3487 6.8176 9.1042 8.4289 7.5555 5.6126 20.812-9.4609 27.941-1.4905 11.189 8.3021 21.3-5.5365 31.079-10.128 11.774-2.8092 23.724 2.3213 35.38 4.2703-3.6279 13.628 8.2133 15.773 19.544 18.296 13.836 2.1511 27.891-5.3263 41.404-4.3144 11.04 0.96884 17.403 10.333 25.087 16.767-21.871-9.4109-45.452-0.8449-68.33-2.3492-5.9981 1.9353-31.468-1.8416-14.96-5.7776-11.188-0.18888 7.3314-5.8859-11.742-6.7069-14.415 5.7728-30.907-7.7857-43.404 3.2421-4.011 10.969 16.255 3.8908 21.771 8.387 5.5252 8.6708-9.8383 18.408-18.074 10.41-7.998-0.6198-19.47 8.7434-26.543-1.9217-18.648-16.316 10.933 10.118-5.521 3.0496-5.196 5.0452-24.88-0.22864-19.232-2.3526 6.807-2.9845 0.27341-4.7484 11.463 1.1176 10.289-3.4101-9.8014-18.5-16.81-12.363-8.037 9.757-20.04-6.0746-27.325 4.607 0.055481 7.7062-26.364 16.584-12.605 8.4468 13.723-8.8665 9.4944-13.215-2.8596-2.7342-6.2376 8.55-17.135 5.5566-24.877 11.853z"/>
  <path d="m221.89 191.49c6.4745-8.5478 18.711-8.1656 26.397-5.8365 8.571-7.7274 21.501-2.8982 28.21 4.865-12.843 0.28484-25.066 5.4295-37.642 3.4773-8.674 3.2322-26.686 5.8165-9.5183-2.2549 4.7647-4.2465-6.0459-0.22093-7.4474-0.25087z"/>
  <path d="m156.01 148.25c1.2896-10.465 37.879-4.3354 20.2-1.6864-9.0317-2.4918-23.727 7.986-17.416 2.1712-4.8732 1.8916-11.485 6.5833-2.7843-0.48477z"/>
  <path d="m262.55 135.65c9.5469 5.7757 17.908-6.488 27.477-8.7822 19.317-3.1373-8.0708 14.089 1.8946 10.014 8.7046 1.3385 10.37-3.3393 22.3-3.5977 13.444-5.0547 24.427 9.6514 37.892 9.4268-4.5052 6.9497-29.412-5.5585-18.563 0.20845 8.684 5.9942-16.767 0.20837 2.4961 5.6014 13.501 0.066696 8.2352 12.384-2.6594 7.2765 1.246 5.4229 12.57 9.9465-4.6209 6.2658-17.19 2.5842 13.418-17.618-3.1892-7.9267-2.6335 1.4229-21.464-9.058-15.449-0.62346-13.436 3.4739-11.393 10.054-23.793 1.8863-10.023-1.4053-10.587 6.2041-23.53 6.9279-10.99 2.1233 25.248 5.048 14.815 6.365-6.2899-0.47244-27.262-3.9748-21.987 5.5795 12.716 2.7978-3.4504 15.3-11.059 14.965 1.1746-0.8706 7.1533-15.813-10.19-7.9382 6.0637-2.8552 22.252-10.656 12.832-12.982-2.0884-7.0804-12.922 3.1396-17.65 8.227-15.777 14.878 10.878-13.559-6.6232-9.2894-17.817 8.3928-6.4491-7.2939 2.9873-10.786 9.2829-5.1097 19.58 2.6444 25.457-2.7944 15.686-3.2168 15.516-2.6944 0.8176-3.557-12.256-3.1972 16.286-4.7821-4.7033-5.9703-8.112-2.6563-28.178-1.8155-9.6832-4.5153 8.5173-0.49496 17.368 0.56222 24.732-3.9814z"/>
  <path d="m335.8 136.09c4.8537 1.8336 24.578-3.0006 12.705 5.0642 7.3197 0.6942-3.3384 8.4738 12.807 9.349 3.9497 1.7866-18.717 6.6029-13.639 10.027 4.0456 4.6727 19.126-0.15652 21.576 10.962 3.171-0.43066 10.64-4.0955 10.009-1.4402 17.116 0.064163-12.711 8.7721 6.4125 5.8906 4.4232-2.9893 4.5707 11.46 9.796 1.397-2.5756-8.9606 6.693-4.7449 18.311-4.4624-4.0888-1.5695-21.945-10.702-2.9544-5.4891 13.349 8.8535 13.488-0.11028-1.1289-2.209-12.846-5.3 15.008 2.4372 19.898-1.3065 15.337-2.5889-10.686-3.9265-12.968-9.7312-9.9696 0.19832-15.622 4.1089-25.914 5.2671-8.2599-0.83469-14.063 11.111-23.491 2.4041-17.224-3.9904-3.8801-4.3819 5.7479-8.9026 11.429-3.7063 24.308 3.4993 35.39-1.3756 7.6193 0.70903 22.519-3.3228 24.906 0.07579-18.02-9.206 18.833 0.20923 5.7212-5.3118-6.6922-6.5839-18.46-0.6927-27.308-1.4138-9.7813 2.4901-19.592-6.7021-28.548 1.7174-23.609 1.569 11.179-4.1816-1.6556-5.4913-9.267-0.34779-24.792-3.6426-6.8617-3.1633 9.1734-3.3068-14.532-5.2418-18.761-8.5838-8.3102-3.6451-13.971 2.2865-20.049 6.7256z"/>
  <path d="m106.29 151.16c8.2791-5.7058 16.209-11.923 25.489-16.175-5.8686 8.6473-16.639 11.104-25.489 16.175z"/>
  <path d="m234.56 328.35c2.7726-11.691 16.459-3.1911 20.267 3.6686 8.2696 18.775-4.6644-11.401 0.86121-9.2914 5.1295 13.885 3.9654-13.124-3.3339-11.722-8.0274-0.28174-18.56 4.1091-23.088 10.502-1.039 4.2866 2.0803 4.9245 5.2938 6.8436z"/>
  <path d="m188.62 333.06c8.846-8.9397 19.939 5.1492 23.197-9.2019 12.681 10.119 5.4727-4.8267 13.981-2.0473 14.909-4.4745-1.8595-1.8781-11.739-3.714-8.7306 3.1654-12.089 0.54593-24.28 2.1679-2.4522 2.3206-11.251 22.7-1.2862 12.88l0.1277-0.0851z"/>
  <path d="m348.8 276.91c18.846-11.549-11.413-11.08 2.9071-13.194-11.82 0.49881-1.8478-11.87-19.535-4.6776-7.0414-1.44-30.427 12.748-22.1 5.9918 12.911-12.173 32.159-14.561 49.613-16.114 9.7856 4.9147 18.964 10.989 29.306 14.844-12.159-7.7081 16.086 3.7187-4.6065-6.8848-2.5382-8.6065 18.515-0.63937 21.774 5.5305 10.378 7.7838 21.068-0.46707 16.092-11.41 1.0198-11.8 20.419-4.6215 18.694 5.1583 8.7439 16.074 29.374 11.16 44.69 14.609 11.494 4.2573-23.487 0.80795-10.779 7.3576-7.5168-2.1269-30.5-2.9769-14.563 5.7625 9.348 3.1683 18.626 22.389 3.5936 9.7399-5.3904-0.70682 2.364 6.7813-9.1584-3.9571-10.884-0.14606-1.2856 4.2567-14.974 0.021576 8.3195 11.67 12.563 9.2269 2.1612 11.588-1.2561 6.1717-21.319-15.878-14.512-3.6581 11.402 15.046-0.082458 7.0218-8.976 0.16977-4.9542-4.9728-22.663-13.962-9.9164-4.2461 16.785 8.0397-13.217 8.1781 4.6136 10.762 5.6339 7.9607 22.141 11.265 5.3057 17.258 9.4533-12.562-14.057-2.5005-21.063-6.0917-17.71-0.75046-13.089-2.5002 1.7112-4.4664-13.212 0.66876-26.417-1.993-38.967-4.1902-9.6632 0.42789-20.516 17.644-11.048 1.7577 13.418-16.362-16.071 11.448-6.5431-0.72888 16.256-17.054-12.957 6.8957-3.6319-7.2813-7.9594-10.084 16.141-0.051453 19.254-8.5737 3.6232-12.579 21.24 3.8062 2.9529-9.0158-6.7102 6.3554-15.291 12.948-27.082 10.124 19.807-0.61838 8.6686-6.2513-4.2823-1.4157 9.0588 0.28281 1.865-12.023 7.9918-10.399 3.9264-0.89697 7.4041-2.8572 11.078-4.3706z"/>
 </g>
</svg>
